<svg width="80" height="80" viewBox="0 0 80 80" fill="none" xmlns="http://www.w3.org/2000/svg">
<path d="M67.6971 59.0266C73.9871 52.1999 73.3538 43.4332 73.3338 43.3332V16.6666C73.3338 15.7825 72.9826 14.9347 72.3575 14.3096C71.7324 13.6844 70.8845 13.3333 70.0005 13.3333H50.0005C46.3238 13.3333 43.3338 16.3233 43.3338 19.9999V43.3332C43.3338 44.2173 43.685 45.0651 44.3101 45.6903C44.9352 46.3154 45.7831 46.6666 46.6671 46.6666H56.9271C56.8567 48.3145 56.3643 49.9168 55.4971 51.3199C53.8038 53.9899 50.6138 55.8132 46.0105 56.7332L43.3338 57.2666V66.6666H46.6671C55.9438 66.6666 63.0205 64.0966 67.6971 59.0266ZM31.0071 59.0266C37.3005 52.1999 36.6638 43.4332 36.6438 43.3332V16.6666C36.6438 15.7825 36.2926 14.9347 35.6675 14.3096C35.0424 13.6844 34.1945 13.3333 33.3105 13.3333H13.3105C9.6338 13.3333 6.6438 16.3233 6.6438 19.9999V43.3332C6.6438 44.2173 6.99499 45.0651 7.62011 45.6903C8.24523 46.3154 9.09308 46.6666 9.97713 46.6666H20.2371C20.1667 48.3145 19.6743 49.9168 18.8071 51.3199C17.1138 53.9899 13.9238 55.8132 9.32047 56.7332L6.6438 57.2666V66.6666H9.97713C19.2538 66.6666 26.3305 64.0966 31.0071 59.0266Z" fill="#D40000"/>
</svg>
