<svg width="358" height="358" viewBox="0 0 358 358" fill="none" xmlns="http://www.w3.org/2000/svg">
<path d="M58.8451 162.777V62.1671C58.8451 60.7303 59.1712 59.3524 59.7516 58.3364C60.3321 57.3204 61.1193 56.7496 61.9402 56.7496C62.761 56.7496 63.5483 57.3204 64.1287 58.3364C64.7091 59.3524 65.0352 60.7303 65.0352 62.1671V162.777C65.0352 164.214 64.7091 165.592 64.1287 166.608C63.5483 167.624 62.761 168.195 61.9402 168.195C61.1193 168.195 60.3321 167.624 59.7516 166.608C59.1712 165.592 58.8451 164.214 58.8451 162.777Z" fill="#F0F0F0"/>
<path d="M51.4392 162.777V62.1671C51.4392 60.7303 51.7653 59.3524 52.3457 58.3364C52.9262 57.3204 53.7134 56.7496 54.5343 56.7496C55.3551 56.7496 56.1424 57.3204 56.7228 58.3364C57.3033 59.3524 57.6293 60.7303 57.6293 62.1671V162.777C57.6293 164.214 57.3033 165.592 56.7228 166.608C56.1424 167.624 55.3551 168.195 54.5343 168.195C53.7134 168.195 52.9262 167.624 52.3457 166.608C51.7653 165.592 51.4392 164.214 51.4392 162.777Z" fill="#F0F0F0"/>
<path d="M44.0332 162.777V62.1671C44.0332 60.7303 44.3593 59.3524 44.9397 58.3364C45.5202 57.3204 46.3074 56.7496 47.1283 56.7496C47.9491 56.7496 48.7364 57.3204 49.3168 58.3364C49.8973 59.3524 50.2233 60.7303 50.2233 62.1671V162.777C50.2233 164.214 49.8973 165.592 49.3168 166.608C48.7364 167.624 47.9491 168.195 47.1283 168.195C46.3074 168.195 45.5202 167.624 44.9397 166.608C44.3593 165.592 44.0332 164.214 44.0332 162.777Z" fill="#F0F0F0"/>
<path d="M323.652 323.472C322.406 323.474 321.169 323.098 319.996 322.361L319.815 322.247L319.898 321.546C317.797 314.116 318.531 303.937 321.778 295.568C324.731 287.959 329.219 282.428 333.18 277.548C333.682 276.929 334.279 276.587 334.894 276.566C335.508 276.546 336.112 276.847 336.628 277.432C337.143 278.017 337.547 278.859 337.788 279.849C338.028 280.839 338.094 281.932 337.976 282.988L336.56 295.706C335.538 304.881 334.322 313.565 330.716 318.981C328.735 321.881 326.235 323.471 323.652 323.472Z" fill="#E6E6E6"/>
<path d="M332.927 345.45C331.555 345.435 330.207 344.822 329.005 343.664C327.804 342.506 326.786 340.841 326.046 338.821L325.943 338.541L326.188 338.163C326.821 332.112 329.801 326.721 333.803 324.402C337.44 322.295 341.454 322.64 344.994 322.943C345.462 322.983 345.912 323.265 346.288 323.753C346.665 324.242 346.949 324.915 347.107 325.687C347.264 326.459 347.287 327.295 347.172 328.09C347.058 328.885 346.811 329.603 346.463 330.152L342.481 336.444C339.586 341.016 336.7 345.144 333.218 345.44C333.121 345.447 333.024 345.45 332.927 345.45Z" fill="#E6E6E6"/>
<path d="M320.566 352.176C319.978 344.51 319.373 336.746 319.786 328.998C320.152 322.117 321.325 315.396 323.714 309.885C324.976 306.975 326.519 304.473 328.273 302.493C328.729 301.978 329.148 303.271 328.694 303.784C325.654 307.238 323.315 312.288 322.012 318.21C320.558 324.83 320.324 332.047 320.575 339.081C320.726 343.334 321.048 347.559 321.372 351.779C321.398 351.968 321.382 352.168 321.328 352.338C321.274 352.508 321.185 352.637 321.08 352.698C321.027 352.723 320.971 352.73 320.916 352.717C320.861 352.704 320.809 352.673 320.761 352.624C320.713 352.576 320.671 352.511 320.638 352.434C320.605 352.357 320.58 352.27 320.566 352.176V352.176Z" fill="#F2F2F2"/>
<path d="M318.904 356.583C321.735 347.62 325.019 337.659 330.886 334.475C332.515 333.593 334.227 333.277 335.926 333.544C336.461 333.626 336.327 335.102 335.793 335.02C332.94 334.6 330.094 335.948 327.751 338.827C325.483 341.589 323.717 345.429 322.223 349.501C321.307 351.995 320.488 354.595 319.667 357.192C319.405 358.022 318.639 357.423 318.904 356.583H318.904Z" fill="#F2F2F2"/>
<path d="M317.63 356.452L320.489 356.567L303.253 195.406L300.395 196.349L304.896 238.156H290.396L294.896 196.349L292.038 195.406L274.947 356.567L277.661 356.452L286.647 272.983H308.645L317.63 356.452ZM287.313 266.792L289.729 244.348H305.562L307.978 266.792H287.313Z" fill="#CACACA"/>
<path d="M192.817 165.345V112.42C192.817 110.848 194.206 109.57 195.912 109.57C197.619 109.57 199.007 110.848 199.007 112.42V165.345C199.007 166.916 197.619 168.194 195.912 168.194C194.206 168.194 192.817 166.916 192.817 165.345Z" fill="#F0F0F0"/>
<path d="M185.411 165.345V112.42C185.411 110.848 186.8 109.57 188.506 109.57C190.213 109.57 191.601 110.848 191.601 112.42V165.345C191.601 166.916 190.213 168.194 188.506 168.194C186.8 168.194 185.411 166.916 185.411 165.345Z" fill="#F0F0F0"/>
<path d="M178.005 165.345V112.42C178.005 110.848 179.394 109.57 181.1 109.57C182.807 109.57 184.196 110.848 184.196 112.42V165.345C184.196 166.916 182.807 168.194 181.1 168.194C179.394 168.194 178.005 166.916 178.005 165.345Z" fill="#F0F0F0"/>
<path d="M240.31 126.424C240.296 126.263 240.263 126.109 240.213 125.972C240.163 125.834 240.098 125.717 240.02 125.628L216.686 98.6651C217.038 98.4082 217.332 97.9572 217.524 97.3809H217.524C217.757 96.6693 217.82 95.8251 217.698 95.0328C217.577 94.2405 217.282 93.5644 216.877 93.1521L214.962 91.2173C214.555 90.8092 214.073 90.6994 213.621 90.9117C213.168 91.124 212.782 91.6412 212.546 92.3504C212.419 92.7402 212.342 93.1743 212.322 93.6218L195.479 74.1589C194.913 71.761 194.055 69.6078 192.966 67.8493C191.876 66.0909 190.58 64.7694 189.169 63.9771V55.3955H182.979V63.9771C180.925 65.1266 179.133 67.3886 177.862 70.4366C176.59 73.4846 175.905 77.1609 175.904 80.935V83.2568H182.095C182.095 85.1041 182.514 86.8758 183.26 88.182C184.006 89.4883 185.019 90.2221 186.074 90.2221C187.129 90.2221 188.142 89.4883 188.888 88.182C189.634 86.8758 190.053 85.1041 190.053 83.2568H196.243V80.935C196.243 79.822 196.183 78.7116 196.064 77.6181L238.674 126.855L220.974 164.522C220.837 164.521 220.7 164.519 220.562 164.519C219.15 164.519 217.781 164.577 216.478 164.678C216.556 164.295 216.591 163.889 216.579 163.483C216.553 162.664 216.343 161.896 215.995 161.347C215.647 160.798 215.188 160.512 214.72 160.553L212.513 160.754C212.045 160.799 211.606 161.167 211.292 161.776C210.979 162.385 210.815 163.187 210.838 164.007C210.855 164.491 210.937 164.961 211.078 165.378C207.174 166.104 204.644 167.105 204.644 167.615C204.644 168.449 211.437 167.655 219.939 167.616C219.978 167.81 220.046 167.982 220.136 168.114C220.225 168.247 220.333 168.336 220.449 168.371C220.564 168.407 220.683 168.388 220.793 168.316C220.903 168.245 221 168.124 221.074 167.965L221.238 167.617C229.715 167.658 236.479 168.447 236.479 167.615C236.479 166.829 230.465 164.876 222.673 164.563L240.167 127.334C240.226 127.208 240.269 127.062 240.294 126.905C240.318 126.748 240.324 126.584 240.31 126.424Z" fill="#CCCCCC"/>
<path d="M240.949 356.839H186.469C185.368 356.837 184.312 356.07 183.534 354.708C182.755 353.345 182.317 351.497 182.316 349.57V193.07C182.315 191.349 181.924 189.698 181.228 188.48C180.532 187.263 179.589 186.578 178.605 186.576H51.1701C50.1863 186.578 49.2432 187.263 48.5476 188.48C47.8519 189.698 47.4606 191.349 47.4595 193.07V349.57C47.4582 351.497 47.0203 353.345 46.2418 354.708C45.4633 356.071 44.4078 356.837 43.3067 356.839H41.4427C40.3417 356.837 39.2862 356.071 38.5077 354.708C37.7291 353.345 37.2912 351.497 37.29 349.57V184.641C37.2929 180.024 38.342 175.598 40.2071 172.334C42.0721 169.069 44.6008 167.233 47.2384 167.228H235.153C237.791 167.233 240.319 169.069 242.185 172.334C244.05 175.598 245.099 180.025 245.102 184.641V349.57C245.1 351.497 244.662 353.345 243.884 354.708C243.105 356.071 242.05 356.837 240.949 356.839Z" fill="#E4E4E4"/>
<path d="M244.881 207.858H182.537V212.502H244.881V207.858Z" fill="white"/>
<path d="M244.881 270.546H182.537V275.19H244.881V270.546Z" fill="white"/>
<path d="M130.931 166.464L129.139 165.143L127.91 149.421H111.542L110.209 165.079L108.606 166.482C108.53 166.549 108.468 166.66 108.432 166.795C108.395 166.931 108.386 167.085 108.406 167.231C108.426 167.377 108.473 167.507 108.54 167.6C108.608 167.693 108.691 167.744 108.776 167.744H130.783C130.871 167.744 130.957 167.691 131.025 167.594C131.093 167.496 131.139 167.36 131.157 167.21C131.174 167.059 131.161 166.902 131.12 166.766C131.079 166.63 131.012 166.523 130.931 166.464Z" fill="#E6E6E6"/>
<path d="M160.019 151.512H79.6123C79.1904 151.511 78.7861 151.216 78.4881 150.694C78.1902 150.171 78.0228 149.463 78.0228 148.724V128.878H161.609V148.724C161.609 149.463 161.441 150.171 161.143 150.694C160.845 151.216 160.441 151.511 160.019 151.512Z" fill="#CCCCCC"/>
<path d="M161.692 138.257H77.9491V53.3391C77.9497 52.4479 78.1522 51.5935 78.5122 50.9634C78.8722 50.3332 79.3604 49.9788 79.8695 49.9778H159.772C160.281 49.9788 160.769 50.3332 161.129 50.9634C161.489 51.5935 161.692 52.4479 161.692 53.3391V138.257Z" fill="#3F3D56"/>
<path d="M156.691 132.094H82.9508C82.5583 132.094 82.182 131.82 81.9044 131.334C81.6269 130.849 81.4708 130.19 81.4703 129.503V58.7328C81.4708 58.0458 81.6269 57.3871 81.9044 56.9013C82.182 56.4154 82.5583 56.1421 82.9508 56.1414H156.691C157.083 56.1421 157.46 56.4154 157.737 56.9013C158.015 57.3871 158.171 58.0458 158.171 58.7328V129.503C158.171 130.19 158.015 130.849 157.737 131.334C157.46 131.82 157.083 132.094 156.691 132.094Z" fill="white"/>
<path d="M239.354 64.2658C240.06 64.0879 240.779 64.1829 241.461 64.5441C242.143 64.9052 242.772 65.5238 243.302 66.3562C243.833 67.1886 244.253 68.2146 244.533 69.3619C244.813 70.5092 244.945 71.7499 244.922 72.9966L261.089 83.8892L253.764 93.0495L239.534 81.3013C238.34 81.0924 237.232 80.1242 236.418 78.5801C235.605 77.0361 235.144 75.0234 235.121 72.9236C235.099 70.8237 235.518 68.7826 236.298 67.1869C237.078 65.5912 238.166 64.5518 239.354 64.2658V64.2658Z" fill="#9E616A"/>
<path d="M300.742 58.9187L303.477 67.6228C302.817 73.1435 301.108 78.1106 298.63 81.7166C294.443 87.8984 272.547 110.922 272.547 110.922L244.905 86.632L249.74 75.3845L271.442 88.1148C279.493 74.8086 289.208 64.9782 299.813 59.4071L300.742 58.9187Z" fill="#E4E4E4"/>
<path d="M295.657 202.949C307.571 202.949 317.229 197.441 317.229 190.645C317.229 183.85 307.571 178.342 295.657 178.342C283.742 178.342 274.084 183.85 274.084 190.645C274.084 197.441 283.742 202.949 295.657 202.949Z" fill="#CACACA"/>
<path d="M247.26 346.025L241.531 343.254L244.913 303.259L253.368 307.351L247.26 346.025Z" fill="#9E616A"/>
<path d="M247.185 356.452L228.714 347.515L228.779 347.106C229.306 343.768 230.569 340.934 232.29 339.227C234.011 337.519 236.049 337.078 237.955 338L237.956 338L249.237 343.459L247.185 356.452Z" fill="#2F2E41"/>
<path d="M230.65 346.155L225.213 341.953L231.886 303.247L239.91 309.449L230.65 346.155Z" fill="#9E616A"/>
<path d="M229.709 356.452L212.178 342.903L212.276 342.515C213.076 339.347 214.561 336.865 216.405 335.614C218.25 334.363 220.303 334.446 222.113 335.845L222.113 335.845L232.82 344.121L229.709 356.452Z" fill="#2F2E41"/>
<path d="M312.445 160.564C312.445 160.564 315.327 176.192 297.646 195.955L274.875 235.672L251.214 334.739L237.167 323.716L239.922 310.844L241.771 302.207L242.716 297.788L243.73 293.051L258.769 222.789L271.401 184.075L271.767 163.068L274.875 148.26L297.417 134.259L312.445 160.564Z" fill="#2F2E41"/>
<path d="M300.949 161.338C300.949 161.338 303.831 176.965 286.15 196.729L263.379 236.446L239.718 335.513L225.671 324.49L228.426 311.618L230.275 302.981L231.22 298.562L232.234 293.825L247.273 223.563L251.502 210.6C257.082 193.5 263.862 177.688 271.685 163.534L275.831 156.032L276.273 144.423L285.921 135.033L300.949 161.338Z" fill="#2F2E41"/>
<path d="M287.327 84.8313L294.402 58.5179L306.747 55.5702C306.747 55.5702 316.388 77.0675 313.857 107.275C312.907 118.603 312.134 129.881 312.088 139.78C312.076 142.414 313.392 143.59 313.414 145.971C313.436 148.311 310.919 152.121 311.646 153.711C312.685 155.902 313.303 158.609 313.414 161.45C312.538 165.1 286.02 145.326 274.875 148.26L287.327 84.8313Z" fill="#E4E4E4"/>
<path d="M304.862 42.3221C308.014 33.0433 306.271 21.0499 300.97 15.5341C295.668 10.0184 288.816 13.069 285.665 22.3478C282.514 31.6267 284.257 43.6201 289.558 49.1358C294.859 54.6516 301.711 51.601 304.862 42.3221Z" fill="#9E616A"/>
<path d="M302.402 25.3174C302.381 25.8317 302.351 26.5128 302.317 27.2834C302.283 29.3929 302.622 31.4693 303.29 33.2271C303.914 35.0763 303.169 46.2451 303.169 46.2451C321.46 23.9279 307.007 1.50687 301.354 3.49995C301.472 0.661871 296.861 1.78618 296.861 1.78618C295.104 -3.00272 291.254 3.35416 291.254 3.35416L291.997 1.16632C289.007 2.49726 286.053 18.6689 286.053 18.6689C287.066 25.6456 302.521 22.4793 302.402 25.3174Z" fill="#2F2E41"/>
<path d="M231.446 95.1822C237.732 80.5481 242.7 64.3165 246.18 47.051C246.382 46.0183 246.367 44.8938 246.14 43.8778C245.912 42.8618 245.486 42.0202 244.937 41.5028L223.428 21.3303C223.08 21.0015 222.694 20.816 222.299 20.7879C221.904 20.7598 221.51 20.89 221.148 21.1683C220.779 21.4488 220.452 21.8729 220.191 22.4082C219.93 22.9436 219.742 23.5761 219.642 24.2577C217.138 40.8952 212.432 56.2676 205.905 69.1312C205.636 69.6548 205.44 70.2788 205.329 70.9557C205.219 71.6327 205.199 72.3447 205.27 73.0375C205.338 73.7193 205.494 74.3649 205.726 74.9251C205.958 75.4854 206.26 75.9455 206.61 76.2704L228.118 96.4431C228.668 96.9566 229.305 97.1117 229.914 96.8808C230.524 96.6499 231.067 96.048 231.446 95.1822Z" fill="#CCCCCC"/>
<path d="M229.978 93.2516C229.862 93.5044 229.7 93.6785 229.519 93.744C229.337 93.8095 229.149 93.7623 228.985 93.6105L207.477 73.4375C207.372 73.3422 207.282 73.2059 207.212 73.0392C207.143 72.8725 207.097 72.6799 207.077 72.4767C207.055 72.2621 207.061 72.0413 207.096 71.8316C207.13 71.622 207.192 71.4292 207.276 71.2684C213.996 58.0258 218.84 42.2004 221.417 25.0727C221.447 24.861 221.505 24.6644 221.585 24.498C221.666 24.3317 221.767 24.2003 221.881 24.1139C221.989 24.0296 222.107 23.9902 222.224 23.9987C222.342 24.0072 222.458 24.0635 222.561 24.1631L244.069 44.3355C244.232 44.4896 244.359 44.7385 244.428 45.0391C244.498 45.3398 244.505 45.6733 244.448 45.9821C241.031 62.9385 236.151 78.8795 229.978 93.2516Z" fill="white"/>
<path d="M222.453 43.3288L237.289 58.5489C238.765 60.0632 240.101 56.0512 238.628 54.5393L223.792 39.3191C222.316 37.8048 220.98 41.8168 222.453 43.3287V43.3288Z" fill="#D40000"/>
<path d="M219.8 51.8417L234.636 67.0618C236.112 68.5761 237.448 64.5642 235.975 63.0522L221.139 47.8321C219.663 46.3178 218.327 50.3297 219.8 51.8417V51.8417Z" fill="#D40000"/>
<path d="M216.706 61.1287L231.541 76.3488C233.017 77.8631 234.354 73.8511 232.88 72.3392L218.045 57.1191C216.569 55.6047 215.232 59.6167 216.706 61.1287V61.1287Z" fill="#D40000"/>
<path d="M213.61 68.8678L228.446 84.0879C229.922 85.6022 231.258 81.5903 229.785 80.0784L214.949 64.8582C213.473 63.3439 212.137 67.3559 213.61 68.8678V68.8678Z" fill="#D40000"/>
<path d="M281.24 158.394L286.809 180.316C286.944 180.841 287.001 181.416 286.977 181.989C286.952 182.563 286.846 183.116 286.669 183.6C286.459 184.178 286.157 184.635 285.8 184.913C285.443 185.191 285.046 185.278 284.661 185.163C284.53 185.128 284.401 185.068 284.277 184.984C283.785 184.651 283.388 183.99 283.173 183.146L277.604 161.225C277.498 160.807 277.44 160.356 277.433 159.899C277.426 159.442 277.471 158.987 277.565 158.56C277.754 157.698 278.131 157.003 278.613 156.627C279.096 156.252 279.643 156.227 280.136 156.559C280.628 156.89 281.026 157.55 281.24 158.394Z" fill="#D40000"/>
<path d="M286.36 178.548L287.475 182.973L288.046 189.245C288.084 189.658 288.042 190.082 287.929 190.449C287.815 190.817 287.634 191.108 287.416 191.278C287.198 191.448 286.954 191.487 286.721 191.389C286.489 191.29 286.282 191.061 286.132 190.735L283.823 185.707L282.724 181.379L286.36 178.548Z" fill="#3F3D56"/>
<path d="M276.366 152.295L277.164 161.072C277.19 161.359 277.254 161.632 277.35 161.87C277.446 162.107 277.572 162.303 277.718 162.442C277.864 162.58 278.026 162.659 278.192 162.67C278.358 162.681 278.524 162.626 278.676 162.508L279.467 161.892L280.994 167.903C281.042 168.09 281.13 168.236 281.239 168.31C281.349 168.383 281.47 168.378 281.577 168.294C281.684 168.211 281.768 168.057 281.81 167.865C281.852 167.674 281.849 167.461 281.802 167.274L280.275 161.263L281.066 160.647C281.328 160.443 281.534 160.065 281.637 159.596C281.741 159.127 281.734 158.605 281.618 158.145C281.579 157.993 281.529 157.85 281.469 157.721L278.281 150.805C278.131 150.48 277.923 150.25 277.691 150.152C277.459 150.054 277.215 150.093 276.996 150.263C276.778 150.433 276.598 150.724 276.484 151.092C276.37 151.459 276.328 151.882 276.366 152.295Z" fill="#3F3D56"/>
<path d="M278.676 168.136C278.802 166.908 279.08 165.743 279.49 164.724C279.901 163.704 280.434 162.854 281.052 162.234C281.671 161.614 282.359 161.239 283.07 161.136C283.78 161.032 284.494 161.202 285.163 161.634L296.158 138.201L298.82 153.253L287.971 173.198C287.482 175.116 286.608 176.653 285.515 177.518C284.422 178.384 283.185 178.517 282.039 177.893C280.894 177.269 279.918 175.932 279.299 174.133C278.679 172.335 278.457 170.201 278.676 168.136Z" fill="#9E616A"/>
<path d="M292.518 166.614L287.676 154.371L301.426 122.28L294.343 95.7109L294.859 64.1076L300.712 62.215L300.785 62.2788C303.63 65.146 305.83 69.631 307.019 74.9887C308.479 81.3785 311.739 105.366 313.552 119.095C313.908 121.755 313.869 124.531 313.439 127.158C313.008 129.785 312.201 132.175 311.093 134.101L292.518 166.614Z" fill="#E4E4E4"/>
<path d="M156.175 107.456C156.134 108.051 156.121 108.65 156.134 109.248L131.342 140.82L124.531 135.544L118.638 152.495L130.177 163.887C131.109 164.807 132.187 165.173 133.248 164.93C134.309 164.687 135.297 163.848 136.063 162.539L161.016 119.878C162.293 120.446 163.639 120.32 164.874 119.517C166.109 118.713 167.176 117.271 167.931 115.381C168.687 113.491 169.095 111.243 169.103 108.936C169.111 106.63 168.717 104.373 167.975 102.468C167.232 100.562 166.176 99.0977 164.946 98.2687C163.716 97.4398 162.371 97.2858 161.09 97.8273C159.809 98.3689 158.653 99.5802 157.775 101.3C156.897 103.02 156.338 105.167 156.175 107.456V107.456Z" fill="#FFB6B6"/>
<path d="M130.54 141.974L123.31 163.062C123.104 163.662 122.827 164.177 122.497 164.573C122.168 164.968 121.793 165.235 121.399 165.354C121.005 165.473 120.601 165.443 120.215 165.264C119.828 165.086 119.468 164.763 119.159 164.319L108.334 148.758C106.586 146.898 105.332 143.901 104.844 140.424C104.357 136.947 104.678 133.274 105.735 130.21C106.793 127.146 108.501 124.941 110.486 124.078C112.471 123.215 114.57 123.765 116.324 125.607L129.221 134.971C129.591 135.239 129.922 135.643 130.194 136.157C130.466 136.67 130.672 137.279 130.797 137.944C130.922 138.608 130.964 139.312 130.92 140.008C130.875 140.703 130.746 141.374 130.54 141.974L130.54 141.974Z" fill="#D40000"/>
<path d="M99.5616 325.267H113.734V284.16H99.5616V325.267Z" fill="#CACACA"/>
<path d="M113.024 305.912L111.205 310.604L145.218 351.002L147.037 346.31L113.024 305.912Z" fill="#CACACA"/>
<path d="M100.272 305.912L66.2587 346.31L68.0776 351.002L102.091 310.604L100.272 305.912Z" fill="#CACACA"/>
<path d="M146.127 356.452C148.587 356.452 150.581 352.962 150.581 348.656C150.581 344.35 148.587 340.86 146.127 340.86C143.667 340.86 141.673 344.35 141.673 348.656C141.673 352.962 143.667 356.452 146.127 356.452Z" fill="#CACACA"/>
<path d="M106.445 356.452C108.905 356.452 110.899 352.962 110.899 348.656C110.899 344.35 108.905 340.86 106.445 340.86C103.985 340.86 101.991 344.35 101.991 348.656C101.991 352.962 103.985 356.452 106.445 356.452Z" fill="#CACACA"/>
<path d="M67.1681 356.452C69.628 356.452 71.6221 352.962 71.6221 348.656C71.6221 344.35 69.628 340.86 67.1681 340.86C64.7081 340.86 62.714 344.35 62.714 348.656C62.714 352.962 64.7081 356.452 67.1681 356.452Z" fill="#CACACA"/>
<path d="M108.064 308.257H104.825V348.656H108.064V308.257Z" fill="#CACACA"/>
<path d="M103.61 302.587H109.684V248.014H103.61V302.587Z" fill="#CACACA"/>
<path d="M89.2358 256.518V243.761C89.2373 241.412 89.7711 239.16 90.72 237.499C91.6688 235.839 92.9554 234.904 94.2973 234.902H121.427C122.769 234.904 124.055 235.839 125.004 237.499C125.953 239.16 126.487 241.412 126.488 243.761V256.518C126.487 258.867 125.953 261.119 125.004 262.78C124.055 264.441 122.769 265.375 121.427 265.378H94.2973C92.9554 265.375 91.6688 264.441 90.72 262.78C89.7711 261.119 89.2374 258.867 89.2358 256.518Z" fill="#3F3D56"/>
<path d="M138.235 343.722L145.737 343.722L149.307 309.66L138.234 309.661L138.235 343.722Z" fill="#FFB8B8"/>
<path d="M136.321 356.453L160.514 356.451V355.915C160.514 353.751 160.27 351.608 159.797 349.608C159.324 347.608 158.63 345.792 157.756 344.261C156.881 342.731 155.843 341.517 154.701 340.688C153.559 339.86 152.334 339.434 151.098 339.434H151.097L136.321 339.435L136.321 356.453Z" fill="#2F2E41"/>
<path d="M149.457 322.6L164.414 263.89C165.663 258.942 165.801 253.351 164.801 248.233C163.801 243.114 161.736 238.843 159.017 236.27L126.574 205.818L111.769 203.614L98.1124 201.441L98.0139 201.733C97.8879 202.105 94.9517 210.982 96.9365 220.716C98.442 228.1 102.358 233.867 108.576 237.858C123.089 247.172 139.854 255.133 146.389 258.123C146.677 258.252 146.947 258.487 147.181 258.812C147.414 259.137 147.605 259.544 147.742 260.008C147.879 260.466 147.961 260.969 147.981 261.485C148.002 262.001 147.961 262.519 147.862 263.006L133.966 317.653C133.821 318.346 133.768 319.089 133.813 319.823C133.858 320.557 133.998 321.263 134.223 321.887C134.449 322.511 134.753 323.036 135.112 323.422C135.472 323.808 135.877 324.044 136.297 324.112L146.68 325.435C146.769 325.45 146.856 325.457 146.944 325.457C147.476 325.457 147.996 325.187 148.442 324.68C148.888 324.173 149.24 323.45 149.457 322.6Z" fill="#2F2E41"/>
<path d="M133.34 343.722L140.842 343.722L144.412 309.66L133.339 309.661L133.34 343.722Z" fill="#FFB8B8"/>
<path d="M131.426 356.453L155.618 356.451V355.915C155.618 353.751 155.375 351.608 154.902 349.608C154.428 347.608 153.735 345.792 152.861 344.261C151.986 342.731 150.948 341.517 149.806 340.688C148.663 339.86 147.439 339.434 146.202 339.434H146.201L131.426 339.435L131.426 356.453Z" fill="#2F2E41"/>
<path d="M143.949 325.814L158.907 267.104C160.156 262.156 160.294 256.565 159.293 251.447C158.293 246.328 156.228 242.057 153.51 239.484L121.066 209.032L106.261 206.828L95.5648 205.204L95.5663 204.947C95.4403 205.319 92.504 214.196 94.4888 223.93C95.9944 231.314 96.8505 237.081 103.068 241.072C117.581 250.386 134.347 258.347 140.881 261.337C141.17 261.466 141.44 261.701 141.673 262.026C141.906 262.351 142.098 262.758 142.234 263.222C142.371 263.68 142.453 264.183 142.474 264.699C142.494 265.215 142.454 265.733 142.354 266.22L128.458 320.867C128.313 321.56 128.261 322.302 128.305 323.036C128.35 323.77 128.49 324.477 128.716 325.101C128.941 325.725 129.245 326.25 129.605 326.636C129.964 327.022 130.37 327.258 130.789 327.326L141.173 328.649C141.261 328.664 141.349 328.671 141.436 328.671C141.968 328.671 142.488 328.401 142.934 327.894C143.38 327.387 143.733 326.664 143.949 325.814Z" fill="#2F2E41"/>
<path d="M134.566 72.9338C136.487 58.7975 131.496 44.6124 123.42 41.2506C115.344 37.8888 107.24 46.6232 105.319 60.7596C103.399 74.8959 108.389 89.0809 116.465 92.4427C124.541 95.8045 132.645 87.0701 134.566 72.9338Z" fill="#FFB8B8"/>
<path d="M171.756 167.931C178.041 153.297 183.01 137.065 186.49 119.8C186.691 118.767 186.677 117.643 186.449 116.627C186.222 115.611 185.795 114.769 185.246 114.252L163.738 94.0792C163.39 93.7504 163.004 93.5649 162.608 93.5368C162.213 93.5088 161.82 93.6388 161.458 93.9172C161.089 94.1977 160.762 94.6218 160.501 95.1571C160.24 95.6925 160.052 96.325 159.951 97.0066C157.448 113.644 152.742 129.017 146.215 141.88C145.946 142.404 145.749 143.028 145.639 143.705C145.529 144.382 145.509 145.094 145.579 145.786C145.648 146.468 145.804 147.114 146.036 147.674C146.268 148.234 146.57 148.694 146.919 149.019L168.428 169.192C168.978 169.705 169.615 169.861 170.224 169.63C170.833 169.399 171.376 168.797 171.756 167.931Z" fill="#CCCCCC"/>
<path d="M170.288 166.001C170.172 166.253 170.01 166.427 169.828 166.493C169.647 166.558 169.459 166.511 169.295 166.359L147.786 146.186C147.682 146.091 147.591 145.955 147.522 145.788C147.453 145.621 147.407 145.429 147.387 145.226C147.365 145.011 147.371 144.79 147.405 144.581C147.44 144.371 147.502 144.178 147.586 144.017C154.306 130.775 159.15 114.949 161.727 97.8216C161.757 97.6099 161.814 97.4133 161.895 97.247C161.975 97.0806 162.077 96.9492 162.191 96.8629C162.299 96.7785 162.416 96.7391 162.534 96.7476C162.652 96.7561 162.767 96.8124 162.871 96.912L184.379 117.084C184.542 117.238 184.669 117.487 184.738 117.788C184.807 118.089 184.814 118.422 184.758 118.731C181.341 135.687 176.461 151.628 170.288 166.001Z" fill="white"/>
<path d="M162.763 116.077L177.598 131.298C179.074 132.812 180.411 128.8 178.937 127.288L164.102 112.068C162.626 110.553 161.289 114.565 162.763 116.077V116.077Z" fill="#CCCCCC"/>
<path d="M160.11 124.59L174.945 139.811C176.421 141.325 177.758 137.313 176.284 135.801L161.449 120.581C159.973 119.067 158.636 123.079 160.11 124.59V124.59Z" fill="#CCCCCC"/>
<path d="M158.025 133.071L171.517 147.09C172.86 148.485 174.295 145.601 172.955 144.208L159.463 130.189C158.121 128.794 156.685 131.678 158.025 133.071Z" fill="#CCCCCC"/>
<path d="M153.92 141.617L168.755 156.837C170.231 158.351 171.568 154.339 170.094 152.827L155.259 137.607C153.783 136.093 152.446 140.105 153.92 141.617V141.617Z" fill="#CCCCCC"/>
<path d="M128.61 207.949L98.8642 207.637L98.8561 207.267C98.2889 181.144 100.113 157.48 104.432 134.925C104.493 134.08 104.559 133.178 104.624 132.292C105.362 122.201 105.948 114.189 111.43 111.205C110.973 110.142 110.704 108.868 110.656 107.541C110.621 106.659 110.687 105.774 110.85 104.936C111.013 104.099 111.269 103.327 111.604 102.665C111.924 102.026 112.314 101.505 112.751 101.132C113.188 100.759 113.662 100.542 114.147 100.493L124.735 99.8623C125.291 99.8557 125.833 100.177 126.272 100.775C127.078 101.823 127.645 103.339 127.87 105.051C128.096 106.764 127.966 108.561 127.503 110.121C127.378 110.556 127.331 110.754 127.312 110.84C127.689 114.292 128.806 118.392 129.987 122.731C131.679 128.943 133.597 135.984 134.09 143.517C134.357 147.584 134.246 151.7 133.763 155.706C133.542 157.864 133.491 160.065 133.612 162.248C133.708 165.484 133.8 168.54 132.755 171.495C132.488 172.296 132.183 173.15 131.826 174.096L130.356 180.248L128.61 207.949Z" fill="#D40000"/>
<path d="M83.9722 244.507V138.122C83.9744 134.655 84.7622 131.332 86.1626 128.88C87.5631 126.429 89.4618 125.05 91.4424 125.046H93.5084C95.489 125.05 97.3877 126.429 98.7882 128.88C100.189 131.332 100.976 134.655 100.979 138.122V244.507C100.976 247.973 100.189 251.297 98.7882 253.748C97.3877 256.2 95.489 257.578 93.5084 257.582H91.4424C89.4618 257.578 87.5631 256.2 86.1626 253.748C84.7622 251.297 83.9744 247.973 83.9722 244.507Z" fill="#3F3D56"/>
<path d="M163.738 148.739C163.525 149.207 163.333 149.704 163.164 150.224L132.585 154.133L128.392 143.358L118.275 152.311L124.64 172.648C125.154 174.291 125.959 175.598 126.934 176.372C127.908 177.146 129 177.346 130.045 176.941L164.104 163.762C165.017 165.425 166.198 166.561 167.49 167.02C168.781 167.479 170.122 167.239 171.334 166.332C172.545 165.425 173.571 163.893 174.273 161.941C174.975 159.99 175.321 157.71 175.265 155.405C175.209 153.101 174.753 150.88 173.959 149.04C173.164 147.2 172.068 145.827 170.817 145.103C169.566 144.379 168.218 144.34 166.954 144.989C165.689 145.639 164.568 146.947 163.738 148.739Z" fill="#FFB6B6"/>
<path d="M131.556 154.372L119.056 165.603C118.701 165.923 118.31 166.104 117.91 166.136C117.511 166.167 117.112 166.047 116.742 165.785C116.371 165.522 116.037 165.123 115.763 164.614C115.489 164.105 115.28 163.499 115.152 162.836L110.65 139.617C109.727 136.43 109.563 132.732 110.193 129.333C110.824 125.934 112.197 123.111 114.014 121.48C108.473 126.458 120.013 112.317 124.418 127.337L132.548 147.206C132.781 147.775 132.941 148.425 133.017 149.112C133.093 149.799 133.084 150.507 132.99 151.187C132.896 151.867 132.719 152.503 132.472 153.053C132.224 153.603 131.912 154.053 131.556 154.372H131.556Z" fill="#D40000"/>
<path d="M113.152 92.4364C112.248 92.4364 111.249 91.6731 110.124 90.1267C106.812 85.5749 104.445 79.247 103.385 72.1137C102.326 64.9804 102.632 57.4357 104.258 50.6369C105.077 47.2155 106.607 42.5651 109.251 39.8398C111.152 37.8815 113.385 37.1741 115.329 36.6647C117.011 36.2233 118.715 35.8719 120.393 35.6217C122.397 35.3217 124.713 35.1191 126.824 36.5234C128.372 37.5527 129.688 39.3704 130.962 41.1284C131.406 41.7405 131.865 42.3747 132.325 42.9611C133.439 44.4822 134.724 45.5745 136.095 46.1664C136.385 46.2715 136.658 46.484 136.896 46.7898C137.135 47.0955 137.333 47.4874 137.478 47.9387C137.625 48.3975 137.715 48.9064 137.74 49.4309C137.765 49.9555 137.726 50.4835 137.625 50.9792C137.427 51.9542 137.247 52.8332 137.61 53.7855C137.744 54.121 137.924 54.3937 138.132 54.5797C138.341 54.7657 138.572 54.8595 138.806 54.8527C138.93 54.8491 139.052 54.8997 139.162 54.9997C139.271 55.0998 139.365 55.2461 139.434 55.4255C139.504 55.6033 139.548 55.8084 139.562 56.0229C139.576 56.2374 139.56 56.4547 139.516 56.656L139.457 56.9182C139.613 56.9436 139.763 57.0348 139.894 57.184C140.025 57.3332 140.133 57.5358 140.209 57.7745C140.323 58.1144 140.367 58.5119 140.334 58.9014C140.301 59.2908 140.193 59.6489 140.028 59.9164C138.686 62.1513 137.014 63.6833 135.2 64.3385C133.959 64.7647 132.683 64.7595 131.443 64.3234L131.243 64.2554L131.268 63.8684C126.252 60.7372 121.724 66.0511 119.143 72.1262L118.77 71.7142C118.834 71.4878 118.872 71.2411 118.88 70.9889C118.888 70.7366 118.867 70.4841 118.818 70.2465C118.766 69.9614 118.682 69.697 118.572 69.4685C118.461 69.24 118.326 69.0518 118.174 68.9148C117.867 68.6928 117.529 68.6352 117.203 68.7491C116.876 68.863 116.577 69.1434 116.342 69.5549C116.102 69.9943 115.918 70.5162 115.8 71.0873C115.682 71.6584 115.633 72.2662 115.657 72.8721C115.724 74.1562 115.911 75.4124 116.21 76.5913C116.331 77.1551 116.457 77.7386 116.559 78.3266C117.13 81.667 116.978 85.2587 116.131 88.4148C115.74 89.8546 115.034 91.6904 113.887 92.2595C113.648 92.3777 113.401 92.4372 113.152 92.4364Z" fill="#2F2E41"/>
<path d="M357.473 358H0.52604C0.386677 357.999 0.253164 357.902 0.154762 357.729C0.0563599 357.556 0.00109863 357.322 0.00109863 357.078C0.00109863 356.834 0.0563599 356.6 0.154762 356.428C0.253164 356.255 0.386677 356.157 0.52604 356.157H357.473C357.613 356.157 357.747 356.254 357.845 356.427C357.944 356.599 358 356.834 358 357.078C358 357.323 357.944 357.557 357.845 357.73C357.747 357.903 357.613 358 357.473 358Z" fill="#CACACA"/>
</svg>
