<svg width="720" height="700" viewBox="0 0 720 700" fill="none" xmlns="http://www.w3.org/2000/svg">
<circle cx="500" cy="500" r="500" fill="url(#paint0_linear_3_11)"/>
<g clip-path="url(#clip0_3_11)">
<circle cx="357" cy="480" r="250.5" stroke="white" stroke-opacity="0.4" stroke-dasharray="30 30"/>
<circle cx="357" cy="480" r="150.5" stroke="white" stroke-opacity="0.4" stroke-dasharray="30 30"/>
<g opacity="0.7">
<path opacity="0.7" d="M370.378 450.087L369.885 449.97V431.024C388.971 426.299 406.256 416.072 419.604 401.606C432.952 387.14 441.777 369.07 444.987 349.631H445.229C450.056 349.631 453.962 342.279 453.962 333.217C453.962 327.592 452.456 322.637 450.164 319.678C450.51 316.213 450.686 312.7 450.691 309.14C450.707 294.963 447.852 280.93 442.3 267.891C436.747 254.852 428.613 243.078 418.389 233.281C416.985 226.276 414.481 219.538 410.97 213.32C403.526 200.175 391.138 186.494 396.19 172.243L363.486 175.596L363.185 154.001C352.981 155.837 348.707 167.691 342.651 176.132C328.089 196.437 298.865 199.262 279.535 215.072C272.969 220.446 258.198 236.785 260.975 247.499C247.984 265.412 241.002 286.995 241.035 309.14C241.035 312.695 241.21 316.207 241.562 319.678C239.27 322.637 237.764 327.592 237.764 333.217C237.764 342.287 241.679 349.631 246.497 349.631H246.739C249.949 369.07 258.774 387.14 272.122 401.606C285.47 416.072 302.755 426.299 321.841 431.024V449.97L321.348 450.087C310.089 448.771 196.47 440.077 221.387 627.358L236.669 683.827L240.073 683.693C240.519 689.359 242.95 694.684 246.935 698.725C250.921 702.767 256.205 705.266 261.852 705.779C267.5 706.292 273.146 704.786 277.792 701.528C282.438 698.27 285.784 693.47 287.238 687.977C308.877 687.902 333.317 687.835 345.788 687.835C358.259 687.835 382.741 687.91 404.337 687.977C405.768 693.499 409.108 698.332 413.763 701.614C418.418 704.897 424.085 706.417 429.754 705.903C435.422 705.388 440.724 702.873 444.715 698.806C448.706 694.738 451.126 689.383 451.544 683.693L454.949 683.827L470.23 627.358C495.264 440.077 381.637 448.771 370.378 450.087Z" fill="url(#paint1_linear_3_11)"/>
</g>
<path d="M627 678.108H87V696.451H627V678.108Z" fill="#E0E0E0"/>
<path d="M604.117 696.462H109.885V703.965H604.117V696.462Z" fill="#E0E0E0"/>
<path opacity="0.1" d="M604.117 696.462H109.885V698.96H604.117V696.462Z" fill="#2F3640"/>
<path opacity="0.1" d="M248.762 679.508C248.762 679.508 321.221 679.223 345.862 679.223C370.502 679.223 442.961 679.508 442.961 679.508V668.936H248.762V679.508Z" fill="#2F3640"/>
<path d="M442.97 677.391C442.97 677.391 370.511 677.106 345.871 677.106C321.23 677.106 248.771 677.391 248.771 677.391V543.813C248.771 518.003 259 493.25 277.208 474.999C295.416 456.748 320.111 446.494 345.862 446.492C358.614 446.491 371.242 449.007 383.023 453.898C394.805 458.788 405.51 465.956 414.528 474.993C423.545 484.031 430.698 494.76 435.578 506.568C440.458 518.376 442.97 531.032 442.97 543.813V677.391Z" fill="white"/>
<path d="M336.671 397.832H355.072C358.79 397.832 362.356 399.313 364.985 401.947C367.614 404.582 369.091 408.156 369.091 411.883V450.722C369.091 456.894 366.644 462.813 362.29 467.178C357.936 471.542 352.03 473.994 345.872 473.994C339.714 473.994 333.808 471.542 329.453 467.178C325.099 462.813 322.653 456.894 322.653 450.722V411.883C322.653 408.156 324.13 404.582 326.759 401.947C329.388 399.313 332.953 397.832 336.671 397.832Z" fill="#FDB797"/>
<path opacity="0.1" d="M322.644 433.093C337.895 436.855 353.83 436.855 369.082 433.093V399.946H322.644V433.093Z" fill="#2F3640"/>
<path d="M345.871 414.761C401.831 414.761 447.195 369.293 447.195 313.207C447.195 257.12 401.831 211.653 345.871 211.653C289.912 211.653 244.547 257.12 244.547 313.207C244.547 369.293 289.912 414.761 345.871 414.761Z" fill="#2F3640"/>
<path d="M345.871 433.801C399.497 433.801 442.97 390.229 442.97 336.48C442.97 282.732 399.497 239.16 345.871 239.16C292.244 239.16 248.771 282.732 248.771 336.48C248.771 390.229 292.244 433.801 345.871 433.801Z" fill="#FDB797"/>
<path d="M281.751 222.275C300.428 206.992 328.682 204.268 342.759 184.634C348.614 176.477 352.737 165.018 362.607 163.24L362.9 184.115L394.508 180.862C389.632 194.627 401.601 207.881 408.794 220.581C414.098 229.975 416.998 240.54 417.234 251.331C406.26 257.937 392.651 250.727 380.431 246.88C368.554 243.141 355.932 242.755 343.487 242.403C337.105 242.219 330.648 242.051 324.416 243.451C318.954 244.683 313.844 247.089 308.675 249.26C300.269 252.79 273.721 266.102 265.909 257.518C257.059 247.785 274.541 228.177 281.751 222.275Z" fill="#2F3640"/>
<path opacity="0.1" d="M287.029 287.67C292.181 290.797 298.237 292.029 304.201 292.851C329.073 296.256 354.399 293.404 377.898 284.551C381.745 294.326 391.138 301.041 401.125 304.235C411.112 307.429 421.776 307.588 432.256 307.714C434.565 307.714 437.041 307.714 438.948 306.432C443.615 303.271 441.357 296.036 438.638 291.09L425.113 266.544C421.115 259.284 417 251.874 410.811 246.374C403.049 239.492 392.744 236.264 382.581 234.227C358.561 229.437 333.762 230.266 310.114 236.65C284.838 243.465 252.368 266.645 287.029 287.67Z" fill="#2F3640"/>
<path d="M287.029 285.558C292.181 288.685 298.237 289.917 304.201 290.739C329.073 294.144 354.399 291.292 377.898 282.439C381.745 292.214 391.138 298.929 401.125 302.123C411.112 305.317 421.776 305.476 432.256 305.602C434.565 305.602 437.041 305.602 438.948 304.32C443.615 301.159 441.357 293.924 438.638 288.978L425.113 264.399C421.115 257.139 417 249.728 410.811 244.229C403.049 237.346 392.744 234.119 382.581 232.081C358.561 227.292 333.762 228.121 310.114 234.504C284.838 241.345 252.368 264.524 287.029 285.558Z" fill="#2F3640"/>
<path d="M441.917 352.344C446.583 352.344 450.365 345.239 450.365 336.475C450.365 327.711 446.583 320.606 441.917 320.606C437.251 320.606 433.469 327.711 433.469 336.475C433.469 345.239 437.251 352.344 441.917 352.344Z" fill="#FDB797"/>
<path d="M249.826 352.344C254.492 352.344 258.274 345.239 258.274 336.475C258.274 327.711 254.492 320.606 249.826 320.606C245.161 320.606 241.379 327.711 241.379 336.475C241.379 345.239 245.161 352.344 249.826 352.344Z" fill="#FDB797"/>
<path d="M368.696 449.523C368.696 449.523 491.516 430.351 466.189 620.767L451.418 675.35L409.196 673.673C409.196 673.673 436.639 610.204 419.751 567.886C402.864 525.567 368.696 449.523 368.696 449.523Z" fill="white"/>
<path d="M323.036 449.523C323.036 449.523 200.25 430.351 225.543 620.767L240.314 675.35L282.537 673.673C282.537 673.673 255.094 610.204 271.981 567.886C288.868 525.567 323.036 449.523 323.036 449.523Z" fill="white"/>
<path opacity="0.1" d="M269.875 533.431C269.875 533.431 261.427 598.82 276.206 617.859L269.875 533.431Z" fill="#2F3640"/>
<path opacity="0.1" d="M421.86 535.108C421.86 535.108 430.308 598.82 415.528 617.859L421.86 535.108Z" fill="#2F3640"/>
<path d="M424.98 696.784C437.804 696.784 448.199 686.365 448.199 673.512C448.199 660.66 437.804 650.241 424.98 650.241C412.157 650.241 401.761 660.66 401.761 673.512C401.761 686.365 412.157 696.784 424.98 696.784Z" fill="#FDB797"/>
<path d="M266.756 696.784C279.58 696.784 289.975 686.365 289.975 673.512C289.975 660.66 279.58 650.241 266.756 650.241C253.933 650.241 243.538 660.66 243.538 673.512C243.538 686.365 253.933 696.784 266.756 696.784Z" fill="#FDB797"/>
<g opacity="0.7">
<path opacity="0.7" d="M404.396 540.49H287.222C277.364 540.49 269.373 548.499 269.373 558.38V658.408C269.373 668.288 277.364 676.298 287.222 676.298H404.396C414.254 676.298 422.245 668.288 422.245 658.408V558.38C422.245 548.499 414.254 540.49 404.396 540.49Z" fill="url(#paint2_linear_3_11)"/>
</g>
<path d="M401.561 543.005H290.05C280.193 543.005 272.201 551.014 272.201 560.894V655.893C272.201 665.773 280.193 673.783 290.05 673.783H401.561C411.419 673.783 419.411 665.773 419.411 655.893V560.894C419.411 551.014 411.419 543.005 401.561 543.005Z" fill="#E0E0E0"/>
<path d="M317.725 664.502V654.685C317.729 654.544 317.702 654.404 317.646 654.274C317.59 654.144 317.507 654.028 317.402 653.934C317.297 653.84 317.172 653.77 317.037 653.729C316.903 653.688 316.76 653.676 316.621 653.696C315.228 653.723 313.855 654.028 312.581 654.593V664.477H309.821V646.302H312.573V652.304C313.985 651.752 315.482 651.448 316.997 651.407C319.507 651.407 320.435 652.95 320.435 655.062V664.493H317.708L317.725 664.502ZM325.596 658.567C325.688 661.853 326.332 662.498 328.347 662.498C329.98 662.422 331.587 662.065 333.098 661.442L333.558 663.513C331.879 664.336 330.041 664.782 328.172 664.82C323.58 664.82 322.869 662.305 322.869 658.265C322.815 656.228 323.046 654.193 323.555 652.22C325.333 651.613 327.205 651.329 329.084 651.382C332.847 651.382 333.993 653.478 333.993 657.133V658.533H325.629L325.596 658.567ZM329.084 653.713C328.008 653.694 326.934 653.77 325.872 653.939C325.687 654.833 325.586 655.742 325.571 656.655H331.308C331.308 654.744 330.965 653.713 329.084 653.713ZM339.121 654.61V664.493H336.369V653.369C338.348 652.337 340.523 651.734 342.751 651.6V653.897C341.513 653.941 340.291 654.182 339.129 654.61H339.121ZM349.994 664.82C345.887 664.82 344.03 662.8 344.03 658.172C344.03 653.277 346.481 651.416 349.994 651.416C354.101 651.416 355.958 653.436 355.958 658.064C355.958 662.959 353.499 664.82 349.994 664.82ZM349.994 653.713C347.886 653.713 346.715 654.928 346.715 658.172C346.715 661.71 347.702 662.498 349.994 662.498C352.102 662.498 353.273 661.299 353.273 658.064C353.273 654.526 352.286 653.721 349.994 653.721V653.713ZM369.232 664.493H365.995C365.232 662.336 364.065 660.344 362.557 658.625H361.11V664.493H358.417V646.302H361.169V656.739H362.457C363.828 655.271 364.924 653.567 365.694 651.709H368.788C367.783 653.761 366.459 655.64 364.865 657.276C366.596 659.505 368.08 661.917 369.29 664.468L369.232 664.493ZM374.392 664.812C371.883 664.812 370.955 663.269 370.955 661.157V651.743H373.681V661.517C373.678 661.659 373.705 661.799 373.76 661.929C373.816 662.058 373.9 662.174 374.005 662.269C374.11 662.363 374.234 662.433 374.369 662.474C374.504 662.515 374.646 662.526 374.785 662.507C376.224 662.481 377.644 662.177 378.967 661.61V651.743H381.753V662.825C379.536 664.122 377.018 664.81 374.451 664.82L374.392 664.812ZM373.179 641.666H318.336C317.219 641.668 316.113 641.45 315.08 641.023C314.048 640.597 313.109 639.971 312.319 639.18C311.528 638.39 310.9 637.451 310.472 636.418C310.043 635.384 309.822 634.276 309.821 633.157V560.852C309.821 559.734 310.041 558.626 310.468 557.593C310.895 556.559 311.521 555.62 312.31 554.83C313.099 554.039 314.036 553.411 315.067 552.983C316.098 552.555 317.203 552.335 318.319 552.335H373.213C374.332 552.33 375.441 552.547 376.477 552.973C377.512 553.399 378.453 554.026 379.247 554.817C380.04 555.608 380.67 556.549 381.1 557.584C381.53 558.62 381.752 559.73 381.753 560.852V633.157C381.753 634.276 381.533 635.385 381.105 636.418C380.678 637.452 380.051 638.392 379.261 639.183C378.471 639.974 377.533 640.601 376.501 641.028C375.469 641.456 374.363 641.675 373.246 641.674L373.179 641.666Z" fill="#6762A6"/>
<path d="M354.896 629.386V593.909C354.896 593.909 357.197 585.417 326.534 597.379C326.475 597.53 326.475 564.567 326.475 564.567L336.512 564.509V585.626C336.512 585.626 364.565 574.552 364.565 594.009V629.37H354.896V629.386ZM360.609 577.285H349.97C353.792 572.599 357.255 564.567 357.255 564.567H368.246C368.246 564.567 366.364 569.799 360.592 577.285H360.609ZM326.659 629.319V609.116L336.738 619.218L326.659 629.319Z" fill="white"/>
<g filter="url(#filter0_f_3_11)">
<path d="M192 340L195.308 348.09L200.66 355L192 353.82L183.34 355L188.692 348.09L192 340Z" fill="white"/>
</g>
<g filter="url(#filter1_f_3_11)">
<path d="M550 454L553.308 462.09L558.66 469L550 467.82L541.34 469L546.692 462.09L550 454Z" fill="white"/>
</g>
<g filter="url(#filter2_f_3_11)">
<path d="M176 504L179.308 512.09L184.66 519L176 517.82L167.34 519L172.692 512.09L176 504Z" fill="white"/>
</g>
<g filter="url(#filter3_f_3_11)">
<path d="M530 198L533.308 206.09L538.66 213L530 211.82L521.34 213L526.692 206.09L530 198Z" fill="white"/>
</g>
</g>
<defs>
<filter id="filter0_f_3_11" x="178.34" y="335" width="27.3206" height="25" filterUnits="userSpaceOnUse" color-interpolation-filters="sRGB">
<feFlood flood-opacity="0" result="BackgroundImageFix"/>
<feBlend mode="normal" in="SourceGraphic" in2="BackgroundImageFix" result="shape"/>
<feGaussianBlur stdDeviation="2.5" result="effect1_foregroundBlur_3_11"/>
</filter>
<filter id="filter1_f_3_11" x="536.34" y="449" width="27.3203" height="25" filterUnits="userSpaceOnUse" color-interpolation-filters="sRGB">
<feFlood flood-opacity="0" result="BackgroundImageFix"/>
<feBlend mode="normal" in="SourceGraphic" in2="BackgroundImageFix" result="shape"/>
<feGaussianBlur stdDeviation="2.5" result="effect1_foregroundBlur_3_11"/>
</filter>
<filter id="filter2_f_3_11" x="162.34" y="499" width="27.3206" height="25" filterUnits="userSpaceOnUse" color-interpolation-filters="sRGB">
<feFlood flood-opacity="0" result="BackgroundImageFix"/>
<feBlend mode="normal" in="SourceGraphic" in2="BackgroundImageFix" result="shape"/>
<feGaussianBlur stdDeviation="2.5" result="effect1_foregroundBlur_3_11"/>
</filter>
<filter id="filter3_f_3_11" x="516.34" y="193" width="27.3203" height="25" filterUnits="userSpaceOnUse" color-interpolation-filters="sRGB">
<feFlood flood-opacity="0" result="BackgroundImageFix"/>
<feBlend mode="normal" in="SourceGraphic" in2="BackgroundImageFix" result="shape"/>
<feGaussianBlur stdDeviation="2.5" result="effect1_foregroundBlur_3_11"/>
</filter>
<linearGradient id="paint0_linear_3_11" x1="371.5" y1="500" x2="-718" y2="1000" gradientUnits="userSpaceOnUse">
<stop stop-color="#D40000"/>
<stop offset="1" stop-color="#D40000" stop-opacity="0.5"/>
</linearGradient>
<linearGradient id="paint1_linear_3_11" x1="345.863" y1="706.009" x2="345.863" y2="154.026" gradientUnits="userSpaceOnUse">
<stop stop-color="#808080" stop-opacity="0.25"/>
<stop offset="0.54" stop-color="#808080" stop-opacity="0.12"/>
<stop offset="1" stop-color="#808080" stop-opacity="0.1"/>
</linearGradient>
<linearGradient id="paint2_linear_3_11" x1="47571.1" y1="85149" x2="47571.1" y2="63148" gradientUnits="userSpaceOnUse">
<stop stop-color="#808080" stop-opacity="0.25"/>
<stop offset="0.54" stop-color="#808080" stop-opacity="0.12"/>
<stop offset="1" stop-color="#808080" stop-opacity="0.1"/>
</linearGradient>
<clipPath id="clip0_3_11">
<rect width="600" height="600" fill="white" transform="translate(57 130)"/>
</clipPath>
</defs>
</svg>
