<svg width="150" height="150" viewBox="0 0 150 150" fill="none" xmlns="http://www.w3.org/2000/svg">
<circle cx="75" cy="75" r="75" fill="#D40000"/>
<g filter="url(#filter0_d_3_681)">
<path d="M83.4095 100H62.5286C62.5286 100 50 100 50 87.5C50 75 50 87.5 50 87.5V50L58.1088 56.5611L58.3524 87.5C58.3524 87.5 58.3269 91.635 62.5031 91.635C66.6793 91.635 66.7047 91.6667 66.7047 91.6667H83.4095V100Z" fill="#D40000" stroke="#FF6600" stroke-width="0.999999"/>
<path d="M66.8716 83.3333V50L74.9804 55.8321L75.2239 68.9425" fill="white"/>
<path d="M66.8716 83.3333V50L74.9804 55.8321L75.2239 68.9425" stroke="white" stroke-width="0.999999"/>
<path d="M83.4141 99.8815C92.5743 99.8815 100 92.4726 100 83.3333L83.4141 99.8815ZM100 83.3333C100 74.1941 92.5743 66.7852 83.4141 66.7852C74.2539 66.7852 66.8282 74.1941 66.8281 83.3333C66.8282 92.4726 74.2539 99.8815 83.4141 99.8815L100 83.3333ZM91.6226 83.2708C91.6225 87.837 87.9124 91.5387 83.3358 91.5388L91.6226 83.2708ZM83.3358 91.5388C78.759 91.5389 75.0487 87.8372 75.0487 83.2708C75.0486 78.7044 78.7589 75.0025 83.3358 75.0026C87.9126 75.0027 91.6227 78.7045 91.6226 83.2708" fill="white"/>
<path d="M83.3358 91.5388C78.759 91.5389 75.0487 87.8372 75.0487 83.2708C75.0486 78.7044 78.7589 75.0025 83.3358 75.0026C87.9126 75.0027 91.6227 78.7045 91.6226 83.2708M83.4141 99.8815C92.5743 99.8815 100 92.4726 100 83.3333L83.4141 99.8815ZM100 83.3333C100 74.1941 92.5743 66.7852 83.4141 66.7852C74.2539 66.7852 66.8282 74.1941 66.8281 83.3333C66.8282 92.4726 74.2539 99.8815 83.4141 99.8815L100 83.3333ZM91.6226 83.2708C91.6225 87.837 87.9124 91.5387 83.3358 91.5388L91.6226 83.2708Z" stroke="white" stroke-width="1.13474"/>
<path d="M83.562 95.7466V91.7173L84.3407 91.6341C85.4115 91.5197 86.9647 90.9604 87.8999 90.3525C88.8075 89.7625 89.9522 88.6025 90.5383 87.6788C91.0641 86.8501 91.6138 85.2656 91.7206 84.2711L91.804 83.4941H95.8495H99.895L99.8084 84.442C99.5319 87.469 98.6201 90.0882 96.9874 92.545C96.2033 93.725 93.8162 96.1066 92.6335 96.889C90.1514 98.531 87.53 99.4311 84.4508 99.6987L83.562 99.776V95.7466Z" fill="#D40000" stroke="#FF6600" stroke-width="0.733852"/>
</g>
<defs>
<filter id="filter0_d_3_681" x="45.5" y="48.9521" width="59.0674" height="59.5479" filterUnits="userSpaceOnUse" color-interpolation-filters="sRGB">
<feFlood flood-opacity="0" result="BackgroundImageFix"/>
<feColorMatrix in="SourceAlpha" type="matrix" values="0 0 0 0 0 0 0 0 0 0 0 0 0 0 0 0 0 0 127 0" result="hardAlpha"/>
<feOffset dy="4"/>
<feGaussianBlur stdDeviation="2"/>
<feComposite in2="hardAlpha" operator="out"/>
<feColorMatrix type="matrix" values="0 0 0 0 0 0 0 0 0 0 0 0 0 0 0 0 0 0 0.25 0"/>
<feBlend mode="normal" in2="BackgroundImageFix" result="effect1_dropShadow_3_681"/>
<feBlend mode="normal" in="SourceGraphic" in2="effect1_dropShadow_3_681" result="shape"/>
</filter>
</defs>
</svg>
