<svg width="358" height="320" viewBox="0 0 358 358" fill="none" xmlns="http://www.w3.org/2000/svg">
<g clip-path="url(#clip0_3_70)">
<path d="M311.894 345.044V309.568C311.894 309.568 324.039 334.719 311.894 345.044Z" fill="#F1F1F1"/>
<path d="M312.644 345.038L289.686 321.046C289.686 321.046 314.176 327.871 312.644 345.038Z" fill="#F1F1F1"/>
<path d="M45.8632 345.044V309.568C45.8632 309.568 33.7181 334.719 45.8632 345.044Z" fill="#F1F1F1"/>
<path d="M45.1126 345.038L68.0701 321.046C68.0701 321.046 43.5808 327.871 45.1126 345.038Z" fill="#F1F1F1"/>
<path d="M254.501 81.9235H252.837V30.0329C252.837 26.0889 252.155 22.1836 250.829 18.5398C249.503 14.8961 247.56 11.5852 245.11 8.79644C242.66 6.00763 239.752 3.79542 236.551 2.28612C233.35 0.776829 229.919 3.2202e-06 226.455 0H129.881C126.416 -8.37228e-06 122.985 0.776806 119.785 2.28609C116.584 3.79538 113.675 6.00757 111.226 8.79637C108.776 11.5852 106.832 14.896 105.507 18.5397C104.181 22.1835 103.498 26.0888 103.498 30.0328V314.709C103.498 322.674 106.278 330.313 111.225 335.945C116.173 341.577 122.884 344.742 129.881 344.742H226.455C233.452 344.742 240.162 341.577 245.11 335.945C250.057 330.313 252.837 322.674 252.837 314.709V118.86H254.501V81.9235Z" fill="#3F3D56"/>
<path d="M227.519 7.81374H214.913C215.493 9.43169 215.714 11.1871 215.557 12.9254C215.401 14.6636 214.871 16.3313 214.015 17.7816C213.159 19.2319 212.002 20.4203 210.648 21.242C209.293 22.0637 207.782 22.4935 206.247 22.4937H150.921C149.386 22.4935 147.874 22.0637 146.52 21.242C145.165 20.4203 144.009 19.2319 143.152 17.7816C142.296 16.3313 141.766 14.6636 141.61 12.9254C141.453 11.1871 141.674 9.43168 142.254 7.81372H130.48C125.255 7.81372 120.244 10.1767 116.549 14.3828C112.854 18.5889 110.778 24.2936 110.778 30.2419V314.5C110.778 317.445 111.288 320.362 112.278 323.083C113.268 325.804 114.719 328.277 116.549 330.359C118.378 332.442 120.55 334.094 122.94 335.221C125.331 336.348 127.893 336.928 130.48 336.928H227.519C230.106 336.928 232.668 336.348 235.059 335.221C237.449 334.094 239.621 332.442 241.451 330.359C243.28 328.277 244.731 325.804 245.721 323.083C246.712 320.362 247.221 317.445 247.221 314.5V30.2419C247.221 27.2966 246.712 24.3801 245.721 21.659C244.731 18.9379 243.28 16.4654 241.451 14.3828C239.621 12.3001 237.449 10.6481 235.059 9.52097C232.668 8.39385 230.106 7.81373 227.519 7.81374Z" fill="white"/>
<path d="M225.089 332.047H132.911C122.32 332.047 113.703 323.292 113.703 312.53V298.401C113.703 289.824 120.565 282.846 129 282.846H229C237.435 282.846 244.297 289.824 244.297 298.401V312.53C244.297 323.292 235.68 332.047 225.089 332.047Z" fill="#E5E5E5"/>
<path d="M142.601 94.5743H122.04C121.671 94.5738 121.318 94.407 121.058 94.1105C120.797 93.814 120.651 93.4121 120.65 92.9928V69.5863C120.651 69.167 120.797 68.7651 121.058 68.4686C121.318 68.1721 121.671 68.0053 122.04 68.0048H142.601C142.969 68.0053 143.322 68.1721 143.583 68.4686C143.843 68.7651 143.99 69.167 143.99 69.5863V92.9928C143.99 93.4121 143.843 93.814 143.583 94.1105C143.322 94.407 142.969 94.5738 142.601 94.5743Z" fill="#D40000"/>
<path d="M173.72 94.5743H153.159C152.791 94.5738 152.437 94.407 152.177 94.1105C151.917 93.814 151.77 93.4121 151.77 92.9928V69.5863C151.77 69.167 151.917 68.7651 152.177 68.4686C152.437 68.1721 152.791 68.0053 153.159 68.0048H173.72C174.089 68.0053 174.442 68.1721 174.702 68.4686C174.963 68.7651 175.109 69.167 175.109 69.5863V92.9928C175.109 93.4121 174.963 93.814 174.702 94.1105C174.442 94.407 174.089 94.5738 173.72 94.5743Z" fill="#E5E5E5"/>
<path d="M204.841 94.5743H184.279C183.911 94.5738 183.558 94.407 183.298 94.1105C183.037 93.814 182.891 93.4121 182.89 92.9928V69.5863C182.891 69.167 183.037 68.7651 183.298 68.4686C183.558 68.1721 183.911 68.0053 184.279 68.0048H204.841C205.209 68.0053 205.562 68.1721 205.823 68.4686C206.083 68.7651 206.23 69.167 206.23 69.5863V92.9928C206.23 93.4121 206.083 93.814 205.823 94.1105C205.562 94.407 205.209 94.5738 204.841 94.5743Z" fill="#E5E5E5"/>
<path d="M235.96 94.5743H215.399C215.031 94.5738 214.678 94.407 214.417 94.1105C214.157 93.814 214.01 93.4121 214.01 92.9928V69.5863C214.01 69.167 214.157 68.7651 214.417 68.4686C214.678 68.1721 215.031 68.0053 215.399 68.0048H235.96C236.329 68.0053 236.682 68.1721 236.942 68.4686C237.203 68.7651 237.349 69.167 237.35 69.5863V92.9928C237.349 93.4121 237.203 93.814 236.942 94.1105C236.682 94.407 236.329 94.5738 235.96 94.5743Z" fill="#E5E5E5"/>
<path d="M142.527 137.908H121.966C121.597 137.908 121.244 137.741 120.984 137.445C120.723 137.148 120.577 136.746 120.577 136.327V112.92C120.577 112.501 120.723 112.099 120.984 111.803C121.244 111.506 121.597 111.339 121.966 111.339H142.527C142.895 111.339 143.249 111.506 143.509 111.803C143.769 112.099 143.916 112.501 143.916 112.92V136.327C143.916 136.746 143.769 137.148 143.509 137.445C143.249 137.741 142.895 137.908 142.527 137.908Z" fill="#E5E5E5"/>
<path d="M173.648 137.908H153.086C152.718 137.908 152.365 137.741 152.104 137.445C151.844 137.148 151.697 136.746 151.697 136.327V112.92C151.697 112.501 151.844 112.099 152.104 111.803C152.365 111.506 152.718 111.339 153.086 111.339H173.648C174.016 111.339 174.369 111.506 174.629 111.803C174.89 112.099 175.036 112.501 175.037 112.92V136.327C175.036 136.746 174.89 137.148 174.629 137.445C174.369 137.741 174.016 137.908 173.648 137.908Z" fill="#E5E5E5"/>
<path d="M204.767 137.908H184.206C183.837 137.908 183.484 137.741 183.224 137.445C182.963 137.148 182.817 136.746 182.817 136.327V112.92C182.817 112.501 182.963 112.099 183.224 111.803C183.484 111.506 183.837 111.339 184.206 111.339H204.767C205.135 111.339 205.489 111.506 205.749 111.803C206.009 112.099 206.156 112.501 206.156 112.92V136.327C206.156 136.746 206.009 137.148 205.749 137.445C205.489 137.741 205.135 137.908 204.767 137.908Z" fill="#D40000"/>
<path d="M235.887 137.908H215.325C214.957 137.908 214.604 137.741 214.343 137.445C214.083 137.148 213.936 136.746 213.936 136.327V112.92C213.936 112.501 214.083 112.099 214.343 111.803C214.604 111.506 214.957 111.339 215.325 111.339H235.887C236.255 111.339 236.608 111.506 236.869 111.803C237.129 112.099 237.276 112.501 237.276 112.92V136.327C237.276 136.746 237.129 137.148 236.869 137.445C236.608 137.741 236.255 137.908 235.887 137.908Z" fill="#D40000"/>
<path d="M142.454 181.242H121.892C121.524 181.241 121.171 181.074 120.91 180.778C120.65 180.481 120.503 180.079 120.503 179.66V156.254C120.503 155.834 120.65 155.432 120.91 155.136C121.171 154.839 121.524 154.672 121.892 154.672H142.454C142.822 154.672 143.175 154.839 143.435 155.136C143.696 155.432 143.842 155.834 143.843 156.254V179.66C143.842 180.079 143.696 180.481 143.435 180.778C143.175 181.074 142.822 181.241 142.454 181.242Z" fill="#E5E5E5"/>
<path d="M173.574 181.242H153.013C152.644 181.241 152.291 181.074 152.031 180.778C151.77 180.481 151.624 180.079 151.623 179.66V156.254C151.624 155.834 151.77 155.432 152.031 155.136C152.291 154.839 152.644 154.672 153.013 154.672H173.574C173.942 154.672 174.295 154.839 174.556 155.136C174.816 155.432 174.963 155.834 174.963 156.254V179.66C174.963 180.079 174.816 180.481 174.556 180.778C174.295 181.074 173.942 181.241 173.574 181.242Z" fill="#E5E5E5"/>
<path d="M204.693 181.242H184.132C183.764 181.241 183.411 181.074 183.15 180.778C182.89 180.481 182.743 180.079 182.743 179.66V156.254C182.743 155.834 182.89 155.432 183.15 155.136C183.411 154.839 183.764 154.672 184.132 154.672H204.693C205.062 154.672 205.415 154.839 205.675 155.136C205.936 155.432 206.082 155.834 206.083 156.254V179.66C206.082 180.079 205.936 180.481 205.675 180.778C205.415 181.074 205.062 181.241 204.693 181.242Z" fill="#E5E5E5"/>
<path d="M235.813 181.242H215.252C214.883 181.241 214.53 181.074 214.27 180.778C214.009 180.481 213.863 180.079 213.862 179.66V156.254C213.863 155.834 214.009 155.432 214.27 155.136C214.53 154.839 214.883 154.672 215.252 154.672H235.813C236.181 154.672 236.534 154.839 236.795 155.136C237.055 155.432 237.202 155.834 237.202 156.254V179.66C237.202 180.079 237.055 180.481 236.795 180.778C236.534 181.074 236.181 181.241 235.813 181.242Z" fill="#E5E5E5"/>
<path d="M142.381 224.575H121.819C121.451 224.575 121.098 224.408 120.838 224.112C120.577 223.815 120.431 223.413 120.43 222.994V199.588C120.431 199.168 120.577 198.766 120.838 198.47C121.098 198.173 121.451 198.006 121.819 198.006H142.381C142.749 198.006 143.102 198.173 143.363 198.47C143.623 198.766 143.77 199.168 143.77 199.588V222.994C143.77 223.413 143.623 223.815 143.363 224.112C143.102 224.408 142.749 224.575 142.381 224.575Z" fill="#E5E5E5"/>
<path d="M173.5 224.575H152.939C152.57 224.575 152.217 224.408 151.957 224.112C151.696 223.815 151.55 223.413 151.55 222.994V199.588C151.55 199.168 151.696 198.766 151.957 198.47C152.217 198.173 152.57 198.006 152.939 198.006H173.5C173.868 198.006 174.222 198.173 174.482 198.47C174.743 198.766 174.889 199.168 174.889 199.588V222.994C174.889 223.413 174.743 223.815 174.482 224.112C174.222 224.408 173.868 224.575 173.5 224.575Z" fill="#E5E5E5"/>
<path d="M204.62 224.575H184.058C183.69 224.575 183.337 224.408 183.077 224.112C182.816 223.815 182.67 223.413 182.669 222.994V199.588C182.67 199.168 182.816 198.766 183.077 198.47C183.337 198.173 183.69 198.006 184.058 198.006H204.62C204.988 198.006 205.341 198.173 205.602 198.47C205.862 198.766 206.009 199.168 206.009 199.588V222.994C206.009 223.413 205.862 223.815 205.602 224.112C205.341 224.408 204.988 224.575 204.62 224.575Z" fill="#E5E5E5"/>
<path d="M235.74 224.575H215.179C214.811 224.575 214.457 224.408 214.197 224.112C213.937 223.815 213.79 223.413 213.79 222.994V199.588C213.79 199.168 213.937 198.766 214.197 198.47C214.457 198.173 214.811 198.006 215.179 198.006H235.74C236.108 198.006 236.462 198.173 236.722 198.47C236.982 198.766 237.129 199.168 237.129 199.588V222.994C237.129 223.413 236.982 223.815 236.722 224.112C236.462 224.408 236.108 224.575 235.74 224.575Z" fill="#E5E5E5"/>
<path d="M142.601 321.364H122.04C121.671 321.363 121.318 321.197 121.058 320.9C120.797 320.604 120.651 320.202 120.65 319.782V296.376C120.651 295.957 120.797 295.555 121.058 295.258C121.318 294.962 121.671 294.795 122.04 294.794H142.601C142.969 294.795 143.322 294.962 143.583 295.258C143.843 295.555 143.99 295.957 143.99 296.376V319.782C143.99 320.202 143.843 320.604 143.583 320.9C143.322 321.197 142.969 321.363 142.601 321.364Z" fill="white"/>
<path d="M173.72 321.364H153.159C152.791 321.363 152.437 321.197 152.177 320.9C151.917 320.604 151.77 320.202 151.77 319.782V296.376C151.77 295.957 151.917 295.555 152.177 295.258C152.437 294.962 152.791 294.795 153.159 294.794H173.72C174.089 294.795 174.442 294.962 174.702 295.258C174.963 295.555 175.109 295.957 175.109 296.376V319.782C175.109 320.202 174.963 320.604 174.702 320.9C174.442 321.197 174.089 321.363 173.72 321.364Z" fill="white"/>
<path d="M204.841 321.364H184.279C183.911 321.363 183.558 321.197 183.298 320.9C183.037 320.604 182.891 320.202 182.89 319.782V296.376C182.891 295.957 183.037 295.555 183.298 295.258C183.558 294.962 183.911 294.795 184.279 294.794H204.841C205.209 294.795 205.562 294.962 205.823 295.258C206.083 295.555 206.23 295.957 206.23 296.376V319.782C206.23 320.202 206.083 320.604 205.823 320.9C205.562 321.197 205.209 321.363 204.841 321.364Z" fill="white"/>
<path d="M235.96 321.364H215.399C215.031 321.363 214.678 321.197 214.417 320.9C214.157 320.604 214.01 320.202 214.01 319.782V296.376C214.01 295.957 214.157 295.555 214.417 295.258C214.678 294.962 215.031 294.795 215.399 294.794H235.96C236.329 294.795 236.682 294.962 236.942 295.258C237.203 295.555 237.349 295.957 237.35 296.376V319.782C237.349 320.202 237.203 320.604 236.942 320.9C236.682 321.197 236.329 321.363 235.96 321.364Z" fill="white"/>
<path d="M168.924 272.021C170.459 272.021 171.703 270.605 171.703 268.858C171.703 267.111 170.459 265.695 168.924 265.695C167.39 265.695 166.146 267.111 166.146 268.858C166.146 270.605 167.39 272.021 168.924 272.021Z" fill="#E5E5E5"/>
<path d="M178.927 272.021C180.461 272.021 181.705 270.605 181.705 268.858C181.705 267.111 180.461 265.695 178.927 265.695C177.392 265.695 176.148 267.111 176.148 268.858C176.148 270.605 177.392 272.021 178.927 272.021Z" fill="#E5E5E5"/>
<path d="M188.93 272.021C190.464 272.021 191.708 270.605 191.708 268.858C191.708 267.111 190.464 265.695 188.93 265.695C187.395 265.695 186.151 267.111 186.151 268.858C186.151 270.605 187.395 272.021 188.93 272.021Z" fill="#E5E5E5"/>
<path d="M357.569 345.254H0.430806C0.316549 345.254 0.206972 345.202 0.12618 345.11C0.0453881 345.018 0 344.894 0 344.764C0 344.634 0.0453881 344.509 0.12618 344.417C0.206972 344.325 0.316549 344.273 0.430806 344.273H357.569C357.683 344.273 357.793 344.325 357.874 344.417C357.955 344.509 358 344.634 358 344.764C358 344.894 357.955 345.018 357.874 345.11C357.793 345.202 357.683 345.254 357.569 345.254Z" fill="#CBCBCB"/>
<path d="M140.6 248.692C141.181 248.03 141.628 247.232 141.909 246.353C142.19 245.473 142.298 244.535 142.226 243.603C142.153 242.671 141.902 241.768 141.491 240.959C141.079 240.149 140.516 239.452 139.842 238.917L145.268 217.03L135.375 220.612L131.739 240.847C131.024 242.195 130.769 243.796 131.021 245.344C131.274 246.893 132.016 248.283 133.108 249.25C134.201 250.217 135.567 250.694 136.947 250.591C138.328 250.488 139.628 249.813 140.6 248.692Z" fill="#FFB7B7"/>
<path d="M143.413 235.276C143.236 235.315 143.056 235.332 142.877 235.328L133.386 235.112C133.029 235.103 132.677 235.009 132.355 234.834C132.032 234.659 131.746 234.408 131.515 234.097C131.285 233.787 131.115 233.424 131.017 233.033C130.919 232.642 130.896 232.231 130.948 231.829L140.575 157.781C140.863 155.639 141.814 153.685 143.256 152.271C144.698 150.857 146.537 150.078 148.441 150.073C149.643 150.076 150.828 150.391 151.907 150.992C152.987 151.593 153.932 152.466 154.672 153.544C155.412 154.622 155.927 155.878 156.178 157.215C156.429 158.553 156.41 159.939 156.122 161.267L149.298 192.73L145.428 232.778C145.372 233.386 145.146 233.956 144.783 234.406C144.42 234.856 143.94 235.161 143.413 235.276Z" fill="#3F3D56"/>
<path d="M147.381 352.172H152.663L155.175 328.981L147.38 328.982L147.381 352.172Z" fill="#FFB7B7"/>
<path d="M146.034 350.209L156.435 350.208H156.436C158.194 350.209 159.88 351.004 161.123 352.419C162.366 353.834 163.064 355.753 163.064 357.754V357.999L146.034 358L146.034 350.209Z" fill="#2F2E41"/>
<path d="M169.902 350.219L175.151 350.889L179.918 328.161L172.172 327.172L169.902 350.219Z" fill="#FFB7B7"/>
<path d="M168.756 348.097L179.092 349.417L179.093 349.417C180.84 349.64 182.437 350.644 183.534 352.208C184.631 353.772 185.137 355.768 184.941 357.756L184.917 358L167.993 355.84L168.756 348.097Z" fill="#2F2E41"/>
<path d="M142.424 223.118C142.424 223.118 135.183 241.366 141.577 253.219L145.386 345.5H154.133L162.619 270.956L177.697 293.025L168.511 344.532L179.208 345.216L194.068 293.025C194.068 293.025 182.652 235.475 178.882 234.089L176.404 220.934L142.424 223.118Z" fill="#2F2E41"/>
<path d="M139.202 239.139C139.202 239.139 132.678 247.661 149.911 250.604C167.143 253.546 185.237 249.132 185.668 243.247C186.098 237.362 139.202 239.139 139.202 239.139Z" fill="#CBCBCB"/>
<path d="M225.585 133.42C225.559 134.252 225.372 135.067 225.039 135.808C224.705 136.549 224.233 137.198 223.656 137.709C223.078 138.22 222.41 138.58 221.697 138.765C220.983 138.95 220.243 138.954 219.529 138.778L213.015 149.471L206.341 146.55L215.726 131.596C216.066 130.249 216.827 129.09 217.867 128.339C218.907 127.589 220.152 127.298 221.367 127.523C222.583 127.748 223.683 128.472 224.461 129.559C225.238 130.646 225.638 132.02 225.585 133.42Z" fill="#FFB7B7"/>
<path d="M170.498 147.178L161.288 142.435L149.489 143.395C149.489 143.395 135.263 162.328 140.864 180.474L137.417 243.738C159.389 250.604 169.376 237.726 185.237 243.247L180.338 172.936L170.498 147.178Z" fill="#3F3D56"/>
<path d="M164.342 151.785L170.497 147.178C170.497 147.178 179.047 145.707 182.465 149.481C182.465 149.481 194.065 150.587 196.867 153.883L199.951 154.675L210.199 139.569L216.47 143.448L207.423 171.401L180.337 172.937L164.342 151.785Z" fill="#3F3D56"/>
<path d="M166.466 137.115C173.511 132.731 176.1 122.675 172.249 114.656C168.398 106.636 159.565 103.688 152.52 108.072C145.475 112.456 142.886 122.512 146.737 130.531C150.588 138.551 159.421 141.499 166.466 137.115Z" fill="#FFB7B7"/>
<path d="M146.919 109.656C149.514 104.343 152.757 100.902 158.096 101.027C163.435 101.151 168.053 100.91 170.455 106.34C171.09 104.986 171.408 103.47 171.378 101.936C172.104 102.472 172.675 103.238 173.023 104.14C173.37 105.041 173.479 106.039 173.334 107.009C173.801 106.698 174.192 106.258 174.471 105.73C174.75 105.201 174.909 104.602 174.931 103.986C176.713 104.661 177.176 107.519 176.275 109.395C175.373 111.27 173.605 112.354 171.908 113.271C170.212 114.188 170.995 119.036 169.887 120.762C169.114 121.967 168.761 123.443 168.24 124.812C168.218 124.866 168.181 124.91 168.134 124.937C166.94 125.696 166.186 127.05 166.397 128.589C166.422 128.704 166.416 128.825 166.38 128.937C164.867 132.18 163.235 135.573 160.494 137.508C158.295 139.02 155.66 139.484 153.162 138.798C150.361 138.036 147.938 135.921 146.192 133.313C144.445 130.705 143.322 127.623 142.478 124.488C141.729 121.706 141.184 118.733 141.778 115.903C142.372 113.074 144.383 110.454 146.931 110.235" fill="#2F2E41"/>
</g>
<defs>
<clipPath id="clip0_3_70">
<rect width="358" height="358" fill="white"/>
</clipPath>
</defs>
</svg>
