<svg width="358" height="358" viewBox="0 0 358 358" fill="none" xmlns="http://www.w3.org/2000/svg">
<g clip-path="url(#clip0_3_115)">
<path opacity="0.1" d="M116.773 227.147C128.613 220.795 147.2 219.499 164.118 220.008C217.259 221.595 265.227 237.033 306.718 254.498C321.74 260.822 336.528 267.637 346.279 276.344C366.127 294.068 360.239 318.62 332.641 333.221C323.249 338.19 311.867 342.011 300.179 345.37C279.395 351.375 256.982 356.191 233.396 357.579C216.58 358.555 199.554 357.759 182.836 356.394C136.123 352.568 90.2737 344.162 51.8424 329.714C34.9857 323.39 19.099 315.525 12.1596 305.287C5.22017 295.048 9.65651 282.085 26.8694 276.025C33.9919 273.522 42.4983 272.388 50.8317 271.329C63.096 269.765 75.5571 268.22 86.6242 265.042C98.0576 261.757 111.594 255.405 109.332 248.137C106.893 240.337 104.946 233.49 116.773 227.147Z" fill="#D40000"/>
<path opacity="0.1" d="M170.731 13.9393L169.438 116.183C169.438 116.183 216.217 116.183 256.015 133.809L256.792 30.4925C256.792 30.4925 192.956 9.71073 170.731 13.9393Z" fill="black"/>
<path d="M170.052 12.5514L168.76 114.795C168.76 114.795 215.539 114.795 255.337 132.421L256.113 29.1047C256.113 29.1047 192.278 8.32291 170.052 12.5514Z" fill="#F5F5FB"/>
<path opacity="0.1" d="M150.808 13.8607L152.101 116.104C152.101 116.104 105.322 116.104 65.5242 133.731L64.7476 30.4417C64.7476 30.4417 128.583 9.63218 150.808 13.8607Z" fill="black"/>
<path d="M151.486 12.4729L152.779 114.716C152.779 114.716 106 114.716 66.2023 132.343L65.4257 29.0539C65.4257 29.0539 129.261 8.24437 151.486 12.4729Z" fill="#F5F5FB"/>
<path opacity="0.1" d="M268.083 45.0704V146.245C268.083 146.245 283.345 143.779 315.376 197.714L318.222 96.5391C318.222 96.5391 284.882 47.5409 268.083 45.0704Z" fill="black"/>
<path d="M267.405 44.145V145.32C267.405 145.32 282.667 142.854 314.698 196.788L317.544 95.6137C317.544 95.6137 284.204 46.6155 267.405 44.145Z" fill="#F5F5FB"/>
<path opacity="0.1" d="M54.287 48.073V149.252C54.287 149.252 39.0244 146.786 6.99324 200.721L4.151 99.5463C4.151 99.5463 37.488 50.5481 54.287 48.073Z" fill="black"/>
<path d="M54.966 46.6852V147.865C54.966 147.865 39.7034 145.399 7.67225 199.333L4.83002 98.1585C4.83002 98.1585 38.167 49.1603 54.966 46.6852Z" fill="#F5F5FB"/>
<path d="M226.585 217.293C226.585 220.74 210.539 240.656 174.014 240.656C137.489 240.656 117.712 221.434 117.712 217.987C117.712 214.54 138.167 223.076 174.692 223.076C211.217 223.076 226.585 213.842 226.585 217.293Z" fill="#F7F7FD"/>
<path opacity="0.1" d="M107.214 169.821C109.361 169.821 111.101 169.496 111.101 169.095C111.101 168.694 109.361 168.369 107.214 168.369C105.068 168.369 103.328 168.694 103.328 169.095C103.328 169.496 105.068 169.821 107.214 169.821Z" fill="#D40000"/>
<path opacity="0.1" d="M92.3285 171.88C94.4752 171.88 96.2154 171.555 96.2154 171.153C96.2154 170.752 94.4752 170.427 92.3285 170.427C90.1819 170.427 88.4417 170.752 88.4417 171.153C88.4417 171.555 90.1819 171.88 92.3285 171.88Z" fill="#D40000"/>
<path opacity="0.1" d="M74.8008 169.095C76.9475 169.095 78.6877 168.77 78.6877 168.369C78.6877 167.968 76.9475 167.642 74.8008 167.642C72.6542 167.642 70.9139 167.968 70.9139 168.369C70.9139 168.77 72.6542 169.095 74.8008 169.095Z" fill="#D40000"/>
<path opacity="0.1" d="M98.2878 177.534C99.8126 177.534 101.049 177.302 101.049 177.015C101.049 176.729 99.8126 176.497 98.2878 176.497C96.763 176.497 95.527 176.729 95.527 177.015C95.527 177.302 96.763 177.534 98.2878 177.534Z" fill="#D40000"/>
<path opacity="0.1" d="M82.8387 177.015C84.3635 177.015 85.5996 176.783 85.5996 176.497C85.5996 176.211 84.3635 175.979 82.8387 175.979C81.314 175.979 80.0779 176.211 80.0779 176.497C80.0779 176.783 81.314 177.015 82.8387 177.015Z" fill="#D40000"/>
<path d="M92.2469 170.992C92.2469 170.992 97.6939 146.624 91.3922 136.867C86.6777 129.567 81.3189 130.423 78.9447 131.348C78.3246 131.573 77.7477 131.979 77.254 132.539C76.7604 133.098 76.3616 133.796 76.0855 134.587C75.2477 137.052 75.4071 141.064 81.3155 145.727C91.2158 153.546 91.8297 164.274 91.8297 164.274L92.2469 170.992Z" fill="#D40000"/>
<path d="M79.7864 134.799C79.7864 134.799 95.8495 141.651 92.2475 170.992" stroke="#565987" stroke-miterlimit="10"/>
<path d="M89.1678 137.256C89.1678 137.256 86.9564 139.287 87.6584 142.345" stroke="#565987" stroke-miterlimit="10"/>
<path d="M81.397 139.065C81.397 139.065 82.7537 137.187 84.3918 138.223" stroke="#565987" stroke-miterlimit="10"/>
<path d="M87.7637 148.498C87.7637 148.498 90.1379 146.856 90.7518 148.915" stroke="#565987" stroke-miterlimit="10"/>
<path d="M93.6205 151.926C93.6205 151.926 91.8364 151.732 91.8059 152.893" stroke="#565987" stroke-miterlimit="10"/>
<path d="M92.4676 171.186C92.4676 171.186 86.0844 153.476 84.3275 153.865C83.4965 154.05 83.1133 155.165 82.9369 156.289C82.7187 157.739 82.8373 159.246 83.2761 160.601C84.1952 163.432 86.6271 168.822 92.4676 171.186Z" fill="#D40000"/>
<path d="M84.3721 157.223C84.3721 157.223 91.0707 170.473 92.3663 171.056" stroke="#565987" stroke-miterlimit="10"/>
<path d="M83.7644 159.292H85.328" stroke="#565987" stroke-miterlimit="10"/>
<path d="M85.6367 164.14L88.0855 164.283" stroke="#565987" stroke-miterlimit="10"/>
<path d="M87.1288 160.263L86.8608 162.002" stroke="#565987" stroke-miterlimit="10"/>
<path d="M89.734 165.56L89.6865 167.143" stroke="#565987" stroke-miterlimit="10"/>
<path d="M92.2777 171.186C92.2777 171.186 98.6575 153.476 100.418 153.865C101.252 154.05 101.635 155.165 101.808 156.289C102.025 157.739 101.906 159.246 101.469 160.601C100.55 163.432 98.1182 168.822 92.2777 171.186Z" fill="#D40000"/>
<path d="M100.363 157.223C100.363 157.223 93.6649 170.473 92.3727 171.056" stroke="#565987" stroke-miterlimit="10"/>
<path d="M100.981 159.292H99.4172" stroke="#565987" stroke-miterlimit="10"/>
<path d="M99.109 164.14L96.6569 164.283" stroke="#565987" stroke-miterlimit="10"/>
<path d="M97.6166 160.263L97.8845 162.002" stroke="#565987" stroke-miterlimit="10"/>
<path d="M95.0118 165.56L95.0593 167.143" stroke="#565987" stroke-miterlimit="10"/>
<path d="M81.3193 175.322C81.1453 175.128 81.0187 174.867 80.9564 174.572C80.9278 174.425 80.9375 174.269 80.9839 174.131C81.0303 173.993 81.1105 173.88 81.2108 173.814C81.4414 173.689 81.6924 173.911 81.8891 174.133C81.9697 174.263 82.0693 174.368 82.1814 174.442C82.2935 174.516 82.4158 174.557 82.5403 174.563C82.4133 174.406 82.3181 174.207 82.264 173.985C82.21 173.763 82.1988 173.525 82.2317 173.296C82.2448 173.201 82.2752 173.112 82.3198 173.037C82.4487 172.847 82.6828 172.93 82.8388 173.078C83.3306 173.541 83.4662 174.466 83.4696 175.285C83.4961 174.978 83.4961 174.667 83.4696 174.36C83.4595 174.208 83.4772 174.055 83.521 173.914C83.5648 173.774 83.6333 173.65 83.7206 173.555C83.8372 173.469 83.9681 173.426 84.1005 173.43C84.2105 173.408 84.3226 173.419 84.4295 173.46C84.5365 173.502 84.6358 173.573 84.7212 173.67C84.8022 173.823 84.8439 174.008 84.8396 174.196C84.8353 174.385 84.7853 174.566 84.6974 174.711C84.5144 174.992 84.2976 175.228 84.0564 175.41C83.8719 175.558 83.7152 175.762 83.5985 176.007C83.5838 176.04 83.5724 176.076 83.5646 176.113H82.174C81.8654 175.9 81.5782 175.634 81.3193 175.322Z" fill="#D40000"/>
<path d="M105.638 168.188C105.465 167.996 105.338 167.736 105.275 167.443C105.247 167.295 105.256 167.139 105.303 167C105.349 166.86 105.429 166.747 105.53 166.68C105.654 166.647 105.782 166.66 105.901 166.717C106.02 166.773 106.126 166.873 106.208 167.004C106.288 167.134 106.388 167.239 106.5 167.312C106.612 167.385 106.735 167.425 106.859 167.429C106.732 167.272 106.637 167.073 106.583 166.851C106.529 166.629 106.518 166.391 106.551 166.162C106.562 166.067 106.593 165.979 106.639 165.907C106.768 165.718 107.002 165.796 107.158 165.944C107.65 166.407 107.785 167.332 107.789 168.156C107.815 167.848 107.815 167.538 107.789 167.23C107.779 167.078 107.796 166.925 107.84 166.785C107.884 166.644 107.952 166.521 108.04 166.425C108.156 166.339 108.287 166.297 108.42 166.305C108.53 166.283 108.642 166.292 108.749 166.334C108.856 166.375 108.955 166.448 109.04 166.546C109.122 166.697 109.163 166.882 109.159 167.069C109.155 167.257 109.105 167.438 109.016 167.582C108.833 167.863 108.617 168.099 108.375 168.281C108.192 168.43 108.035 168.634 107.918 168.877C107.903 168.911 107.891 168.946 107.884 168.984H106.493C106.184 168.771 105.896 168.504 105.638 168.188Z" fill="#D40000"/>
<path d="M97.5312 175.322C97.3573 175.128 97.2307 174.867 97.1683 174.572C97.1404 174.425 97.1504 174.27 97.1968 174.132C97.2431 173.993 97.3229 173.881 97.4227 173.814C97.6567 173.689 97.9043 173.911 98.101 174.133C98.1818 174.262 98.2814 174.367 98.3935 174.441C98.5056 174.516 98.6277 174.557 98.7522 174.563C98.6255 174.406 98.5308 174.206 98.4773 173.984C98.4239 173.762 98.4134 173.525 98.447 173.296C98.4574 173.2 98.4867 173.111 98.5318 173.037C98.6607 172.847 98.8947 172.93 99.0507 173.078C99.5425 173.541 99.6815 174.466 99.6849 175.285C99.7097 174.977 99.7097 174.667 99.6849 174.36C99.6749 174.208 99.6925 174.055 99.7363 173.914C99.7801 173.774 99.8487 173.65 99.9359 173.555C100.096 173.454 100.272 173.412 100.447 173.432C100.623 173.453 100.791 173.535 100.936 173.67C101.019 173.822 101.061 174.008 101.057 174.196C101.052 174.385 101.002 174.567 100.913 174.711C100.73 174.993 100.513 175.229 100.272 175.41C100.089 175.56 99.9322 175.764 99.8138 176.007C99.8005 176.041 99.7892 176.076 99.7799 176.113H98.3927C98.0814 175.902 97.7918 175.636 97.5312 175.322Z" fill="#D40000"/>
<path d="M74.5355 160.906C74.5355 160.906 74.0165 161.831 74.7763 163.219C75.536 164.607 76.1669 165.805 75.9125 166.68C75.9125 166.68 74.7627 164.075 73.83 164.038C72.8973 164.001 73.518 162.47 74.5355 160.906Z" fill="#D40000"/>
<path opacity="0.1" d="M74.5362 160.906C74.4907 160.995 74.4552 161.094 74.431 161.197C73.5187 162.655 73.0337 164.019 73.9087 164.052C74.7261 164.084 75.7063 166.078 75.9437 166.578C75.9367 166.617 75.9277 166.656 75.9166 166.693C75.9166 166.693 74.7668 164.089 73.8341 164.052C72.9014 164.015 73.5187 162.47 74.5362 160.906Z" fill="black"/>
<path d="M73.5793 162.086C73.5793 162.414 73.6065 162.678 73.6404 162.678C73.6743 162.678 73.6981 162.414 73.6981 162.086C73.6981 161.757 73.6675 161.915 73.6336 161.915C73.5997 161.915 73.5793 161.762 73.5793 162.086Z" fill="#FFD037"/>
<path d="M73.2472 162.479C73.4574 162.637 73.6406 162.729 73.6575 162.688C73.6745 162.646 73.5151 162.489 73.3184 162.336C73.1217 162.183 73.1895 162.29 73.1759 162.336C73.1624 162.382 73.0369 162.345 73.2472 162.479Z" fill="#FFD037"/>
<path d="M77.2967 160.906C77.2967 160.906 77.819 161.831 77.0559 163.219C76.2928 164.607 75.6687 165.805 75.9231 166.68C75.9231 166.68 77.0695 164.075 78.0056 164.038C78.9417 164.001 78.3244 162.47 77.2967 160.906Z" fill="#D40000"/>
<path opacity="0.1" d="M77.2964 160.906C77.3419 160.995 77.3773 161.094 77.4015 161.197C78.3139 162.655 78.7989 164.019 77.9238 164.052C77.1064 164.084 76.1296 166.078 75.8888 166.578C75.8958 166.617 75.9049 166.656 75.9159 166.693C75.9159 166.693 77.0623 164.089 77.9984 164.052C78.9345 164.015 78.324 162.47 77.2964 160.906Z" fill="black"/>
<path d="M78.2664 162.086C78.2664 162.414 78.2427 162.678 78.2088 162.678C78.1748 162.678 78.1477 162.414 78.1477 162.086C78.1477 161.757 78.1816 161.915 78.2155 161.915C78.2495 161.915 78.2664 161.762 78.2664 162.086Z" fill="#FFD037"/>
<path d="M78.6058 162.479C78.3956 162.637 78.2124 162.729 78.1988 162.688C78.1853 162.646 78.3379 162.489 78.538 162.336C78.7381 162.183 78.6669 162.29 78.6839 162.336C78.7008 162.382 78.806 162.345 78.6058 162.479Z" fill="#FFD037"/>
<path d="M78.1001 166.573C78.1001 166.573 76.6417 166.513 76.2041 166.087C75.7666 165.662 73.9656 165.162 73.8571 165.833C73.7485 166.504 71.6694 169.233 73.311 169.252C74.9526 169.27 77.1301 168.9 77.5676 168.539C78.0051 168.179 78.1001 166.573 78.1001 166.573Z" fill="#A8A8A8"/>
<path opacity="0.2" d="M73.2844 169.012C74.9259 169.012 77.1034 168.665 77.5409 168.299C77.8801 168.022 78.0056 167.027 78.0497 166.569H78.1006C78.1006 166.569 78.0056 168.17 77.5681 168.535C77.1305 168.901 74.9565 169.266 73.3115 169.248C72.8401 169.248 72.6739 169.012 72.684 168.67C72.7485 168.882 72.9316 169.007 73.2844 169.012Z" fill="black"/>
<path opacity="0.1" d="M66.1961 232.023C72.6998 232.023 77.9721 230.96 77.9721 229.65C77.9721 228.339 72.6998 227.276 66.1961 227.276C59.6924 227.276 54.4202 228.339 54.4202 229.65C54.4202 230.96 59.6924 232.023 66.1961 232.023Z" fill="#D40000"/>
<path opacity="0.1" d="M99.0886 251.676C105.592 251.676 110.865 250.613 110.865 249.303C110.865 247.992 105.592 246.929 99.0886 246.929C92.5849 246.929 87.3126 247.992 87.3126 249.303C87.3126 250.613 92.5849 251.676 99.0886 251.676Z" fill="#D40000"/>
<path opacity="0.1" d="M50.7027 274.035C57.2064 274.035 62.4787 272.973 62.4787 271.662C62.4787 270.351 57.2064 269.289 50.7027 269.289C44.199 269.289 38.9268 270.351 38.9268 271.662C38.9268 272.973 44.199 274.035 50.7027 274.035Z" fill="#D40000"/>
<path opacity="0.1" d="M300.212 323.15C306.716 323.15 311.988 322.087 311.988 320.776C311.988 319.465 306.716 318.403 300.212 318.403C293.708 318.403 288.436 319.465 288.436 320.776C288.436 322.087 293.708 323.15 300.212 323.15Z" fill="#D40000"/>
<path opacity="0.1" d="M166.563 267.355C170.869 267.355 174.36 266.822 174.36 266.166C174.36 265.509 170.869 264.977 166.563 264.977C162.256 264.977 158.765 265.509 158.765 266.166C158.765 266.822 162.256 267.355 166.563 267.355Z" fill="#D40000"/>
<path opacity="0.1" d="M278.15 206.287C282.457 206.287 285.948 205.754 285.948 205.098C285.948 204.441 282.457 203.909 278.15 203.909C273.844 203.909 270.353 204.441 270.353 205.098C270.353 205.754 273.844 206.287 278.15 206.287Z" fill="#D40000"/>
<path opacity="0.1" d="M217.435 296.501C221.741 296.501 225.232 295.969 225.232 295.312C225.232 294.656 221.741 294.123 217.435 294.123C213.128 294.123 209.637 294.656 209.637 295.312C209.637 295.969 213.128 296.501 217.435 296.501Z" fill="#D40000"/>
<path opacity="0.1" d="M150.13 288.655C154.436 288.655 157.927 288.122 157.927 287.466C157.927 286.809 154.436 286.277 150.13 286.277C145.823 286.277 142.332 286.809 142.332 287.466C142.332 288.122 145.823 288.655 150.13 288.655Z" fill="#D40000"/>
<path opacity="0.1" d="M87.0542 285.569C91.3607 285.569 94.8517 285.037 94.8517 284.38C94.8517 283.724 91.3607 283.191 87.0542 283.191C82.7478 283.191 79.2567 283.724 79.2567 284.38C79.2567 285.037 82.7478 285.569 87.0542 285.569Z" fill="#D40000"/>
<path opacity="0.1" d="M70.6183 306.869C74.9247 306.869 78.4158 306.337 78.4158 305.68C78.4158 305.024 74.9247 304.491 70.6183 304.491C66.3119 304.491 62.8208 305.024 62.8208 305.68C62.8208 306.337 66.3119 306.869 70.6183 306.869Z" fill="#D40000"/>
<g opacity="0.1">
<path opacity="0.1" d="M172.569 142.211C201.064 142.211 224.163 128.149 224.163 110.802C224.163 93.4556 201.064 79.3934 172.569 79.3934C144.074 79.3934 120.975 93.4556 120.975 110.802C120.975 128.149 144.074 142.211 172.569 142.211Z" fill="black"/>
<path opacity="0.1" d="M225.059 122.03C222.776 138.408 200.221 151.265 172.728 151.265C144.994 151.265 122.284 138.181 120.337 121.605H120.144V148.295C129.213 161.221 149.292 170.21 172.599 170.21C195.907 170.21 215.986 161.221 225.059 148.295V122.03Z" fill="black"/>
<path opacity="0.1" d="M225.059 154.508C222.776 170.881 200.221 183.742 172.728 183.742C144.994 183.742 122.284 170.659 120.337 154.078H120.144V180.772C129.213 193.698 149.292 202.683 172.599 202.683C195.907 202.683 215.986 193.698 225.059 180.772V154.508Z" fill="black"/>
<path opacity="0.1" d="M225.059 190.228C222.776 206.605 200.221 219.462 172.728 219.462C144.995 219.462 122.284 206.383 120.337 189.802H120.144V218.588C120.143 219.201 120.235 219.808 120.415 220.37C120.595 220.932 120.858 221.438 121.188 221.854C130.685 233.748 150.15 238.407 172.599 238.407C195.049 238.407 214.504 233.748 224.014 221.854C224.344 221.438 224.608 220.932 224.787 220.37C224.967 219.808 225.06 219.201 225.059 218.588V190.228Z" fill="black"/>
</g>
<path d="M172.569 140.36C201.064 140.36 224.164 126.298 224.164 108.952C224.164 91.6053 201.064 77.5432 172.569 77.5432C144.074 77.5432 120.975 91.6053 120.975 108.952C120.975 126.298 144.074 140.36 172.569 140.36Z" fill="#D40000"/>
<path d="M225.059 120.18C222.776 136.557 200.221 149.414 172.728 149.414C144.994 149.414 122.284 136.33 120.337 119.754H120.143V146.444C129.213 159.37 149.292 168.359 172.599 168.359C195.907 168.359 215.986 159.37 225.059 146.444V120.18Z" fill="#D40000"/>
<path d="M225.059 152.657C222.776 169.03 200.221 181.891 172.728 181.891C144.994 181.891 122.284 168.808 120.337 152.227H120.143V178.921C129.213 191.847 149.292 200.832 172.599 200.832C195.907 200.832 215.986 191.847 225.059 178.921V152.657Z" fill="#D40000"/>
<path d="M225.059 188.378C222.776 204.755 200.221 217.612 172.728 217.612C144.995 217.612 122.284 204.533 120.337 187.952H120.144V216.737C120.143 217.351 120.235 217.958 120.415 218.52C120.595 219.082 120.858 219.587 121.188 220.004C130.685 231.898 150.15 236.557 172.599 236.557C195.049 236.557 214.504 231.898 224.014 220.004C224.344 219.587 224.608 219.082 224.787 218.52C224.967 217.958 225.06 217.351 225.059 216.737V188.378Z" fill="#D40000"/>
<path opacity="0.1" d="M248.622 269.03C259.299 269.03 267.954 266.905 267.954 264.283C267.954 261.662 259.299 259.536 248.622 259.536C237.944 259.536 229.289 261.662 229.289 264.283C229.289 266.905 237.944 269.03 248.622 269.03Z" fill="#D40000"/>
<path d="M237.769 203.802C238.745 204.589 240.278 205.102 242.208 203.409L242.191 207.161C242.327 209.733 244.66 219.111 244.66 219.111L246.305 226.823C247.486 232.273 248.095 237.924 248.113 243.608C248.113 245.486 248.242 247.429 248.639 248.891C249.517 252.13 248.3 256.293 247.767 257.829C246.877 258.24 245.971 258.587 245.054 258.87C244.972 258.897 244.892 258.931 244.813 258.972V258.949C244.813 258.949 242.344 260.286 241.245 260.101C240.428 259.967 239.916 261.359 240.567 262.382C240.035 262.603 239.481 262.703 238.925 262.678C237.826 262.493 237.277 265.065 239.336 265.801C241.394 266.536 253.058 265.801 253.058 265.801C253.386 265.577 253.65 265.211 253.808 264.76C253.966 264.31 254.011 263.8 253.933 263.312L255.392 263.228C255.392 263.228 257.451 261.942 255.392 258.449L255.28 258.56L254.842 256.793V254.41C254.842 254.41 257.451 237.293 256.626 235.289C255.802 233.286 255.365 222.951 255.365 222.951L255.653 211.755C256.396 209.664 256.776 206.379 256.969 203.811C257.25 202.588 257.426 201.324 257.495 200.046C257.529 199.439 257.556 198.81 257.573 198.153C257.584 196.712 257.414 195.279 257.071 193.916C258.002 192.032 259.042 190.253 260.181 188.595C260.655 187.994 261.015 187.245 261.23 186.413C261.446 185.581 261.511 184.69 261.419 183.816L260.741 177.566L259.092 166.925C259.299 163.969 258.848 162.266 258.346 161.304C258.465 160.346 258.577 159.393 258.661 158.431C259.024 154.26 258.861 150.036 258.18 145.94C257.942 144.515 257.617 143.048 256.881 141.966C256.05 140.735 254.7 139.99 254.388 138.385C254.344 137.976 254.28 137.571 254.198 137.173C253.896 136.123 252.946 135.739 252.112 135.6C250.626 135.355 248.48 135.17 247.052 135.965C245.798 136.721 244.767 138.027 244.121 139.676C243.8 140.353 243.679 141.171 243.782 141.966C243.833 142.241 243.912 142.506 244.016 142.752C243.541 144.51 243.592 146.452 244.16 148.159C244.728 149.865 245.765 151.197 247.048 151.866C247.082 152.01 247.113 152.148 247.136 152.283C247.199 152.612 247.244 152.948 247.272 153.287C247.245 153.934 247.214 154.587 247.194 155.239L247.143 155.503C245.962 156.216 244.811 157.016 243.694 157.899C244.515 159.555 243.555 166.541 243.555 166.541C241.496 168.193 239.441 172.421 241.635 176.835C243.83 181.248 242.595 186.023 242.595 186.023L242.256 193.212L242.188 194.651H242.212L242.188 195.197H242.246V195.785C241.282 196.27 239.871 197.242 239.034 199.046C238.637 199.931 238.154 200.739 237.599 201.447C237.47 201.598 237.369 201.79 237.305 202.005C237.242 202.221 237.217 202.454 237.234 202.685C237.251 202.916 237.308 203.138 237.401 203.333C237.494 203.527 237.62 203.688 237.769 203.802ZM254.337 184.704C254.254 183.46 254.423 182.209 254.825 181.087H255.795C255.824 181.379 255.864 181.669 255.914 181.956C256.192 183.599 255.08 184.371 254.337 184.704Z" fill="url(#paint0_linear_3_115)"/>
<path d="M254.607 255.951L255.136 258.111L253.42 260.452L247.743 262.275L243.649 261.734L243.913 259.754C243.991 259.328 244.154 258.939 244.383 258.631C244.612 258.322 244.899 258.106 245.212 258.005C246.908 257.468 250.103 256.238 250.778 254.53L254.607 255.951Z" fill="#DB8B8B"/>
<path opacity="0.1" d="M254.607 255.951L255.136 258.111L253.42 260.452L247.743 262.275L243.649 261.734L243.913 259.754C243.991 259.328 244.154 258.939 244.383 258.631C244.612 258.322 244.899 258.106 245.212 258.005C246.908 257.468 250.103 256.238 250.778 254.53L254.607 255.951Z" fill="black"/>
<path d="M244.969 261.174L245.763 259.735L244.969 258.065C244.969 258.065 242.595 259.374 241.537 259.194C240.478 259.013 239.953 261.535 241.933 262.257C243.914 262.978 255.137 262.257 255.137 262.257C255.137 262.257 257.118 260.994 255.137 257.57L253.421 259.374C253.421 259.374 250.514 261.535 249.063 261.174H244.969Z" fill="#C17174"/>
<path d="M241.407 264.237L245.501 264.778L251.179 262.974L252.895 260.633L252.756 260.064L252.559 259.259L252.366 258.473L248.53 257.034C248.335 257.465 248.069 257.828 247.753 258.093C246.508 259.254 244.277 260.092 242.964 260.508C242.909 260.526 242.854 260.55 242.801 260.578C242.546 260.688 242.313 260.88 242.123 261.137C241.894 261.444 241.732 261.832 241.655 262.257L241.407 264.237Z" fill="#DB8B8B"/>
<path opacity="0.1" d="M241.407 264.237L245.501 264.778L251.179 262.974L252.895 260.633L252.756 260.064L251.179 261.715C251.179 261.715 248.272 263.876 246.82 263.515H242.723L243.517 262.076L242.805 260.577C242.549 260.688 242.317 260.88 242.126 261.137C241.897 261.444 241.735 261.831 241.658 262.257L241.407 264.237Z" fill="black"/>
<path d="M242.724 263.695L243.517 262.256L242.724 260.586C242.724 260.586 240.35 261.896 239.291 261.715C238.233 261.535 237.707 264.056 239.688 264.778C241.669 265.5 252.892 264.778 252.892 264.778C252.892 264.778 254.873 263.515 252.892 260.096L251.176 261.896C251.176 261.896 248.269 264.056 246.817 263.695H242.724Z" fill="#C17174"/>
<path d="M246.024 159.231C246.024 159.231 252.363 160.157 251.45 156.53C251.19 155.508 251.122 154.413 251.254 153.347C251.417 152.026 251.8 150.774 252.373 149.687L246.431 150.945C246.788 151.758 247.059 152.635 247.238 153.55C247.933 157.372 246.024 159.231 246.024 159.231Z" fill="#DB8B8B"/>
<path d="M256.853 200.281C256.853 200.281 256.72 208.026 255.401 211.81L255.137 222.798C255.137 222.798 255.53 232.884 256.324 234.864C257.117 236.844 254.607 253.596 254.607 253.596V256.478C254.607 256.478 250.381 258.639 249.181 256.118L250.368 234.683L249.839 204.968L256.853 200.281Z" fill="#474463"/>
<path opacity="0.1" d="M256.853 200.281C256.853 200.281 256.72 208.026 255.401 211.81L255.137 222.798C255.137 222.798 255.53 232.884 256.324 234.864C257.117 236.844 254.607 253.596 254.607 253.596V256.478C254.607 256.478 250.381 258.639 249.181 256.118L250.368 234.683L249.839 204.968L256.853 200.281Z" fill="black"/>
<path d="M259.492 175.443L260.285 178.325L260.964 184.446C261.052 185.3 260.99 186.17 260.783 186.985C260.576 187.8 260.23 188.536 259.773 189.132C258.189 191.293 256.076 195.794 256.076 195.794L253.57 185.528C253.57 185.528 256.076 184.987 255.679 182.646C255.283 180.305 255.418 175.984 255.418 175.984L259.492 175.443Z" fill="#FF748E"/>
<path opacity="0.05" d="M259.522 175.401L260.312 178.283L260.99 184.408C261.08 185.261 261.019 186.131 260.813 186.946C260.606 187.76 260.26 188.495 259.803 189.09C258.216 191.251 256.106 195.757 256.106 195.757L253.58 185.477C253.58 185.477 256.089 184.936 255.693 182.595C255.296 180.254 255.428 175.928 255.428 175.928L259.522 175.401Z" fill="black"/>
<path opacity="0.1" d="M247.756 258.112C249.452 261.748 252.088 259.685 252.556 259.278L252.362 258.491L248.53 257.034C248.338 257.471 248.073 257.84 247.756 258.112Z" fill="black"/>
<path d="M242.458 207.323C242.591 209.844 244.832 219.028 244.832 219.028L246.416 226.587C247.549 231.932 248.135 237.466 248.156 243.03C248.117 244.781 248.287 246.53 248.662 248.207C249.72 252.171 247.607 257.57 247.607 257.57C249.455 262.076 252.623 259.014 252.623 259.014V256.132C252.623 256.132 255.133 240.462 254.472 237.399C253.81 234.337 253.549 226.055 253.549 226.055V211.103C255.663 208.228 256.949 204.412 257.171 200.351C257.202 199.759 257.229 199.139 257.246 198.5C257.351 194.438 255.313 189.673 254.533 187.975C254.343 187.564 254.221 187.332 254.221 187.332L242.563 193.643H242.536V194.267V195.627L242.458 207.323Z" fill="#474463"/>
<path opacity="0.1" d="M246.42 150.945C246.777 151.758 247.049 152.635 247.227 153.55C247.873 153.884 248.561 154.038 249.25 154.003C249.94 153.968 250.618 153.745 251.243 153.347C251.406 152.026 251.789 150.774 252.362 149.687L246.42 150.945Z" fill="black"/>
<path d="M249.062 153.647C251.905 153.647 254.21 150.503 254.21 146.625C254.21 142.746 251.905 139.602 249.062 139.602C246.218 139.602 243.913 142.746 243.913 146.625C243.913 150.503 246.218 153.647 249.062 153.647Z" fill="#DB8B8B"/>
<path opacity="0.1" d="M242.458 195.613H242.516C248.051 197.168 255.004 189.298 255.004 189.298C254.818 188.869 254.657 188.421 254.523 187.957C254.333 187.545 254.21 187.314 254.21 187.314L242.553 193.624L242.523 194.253L242.458 195.613Z" fill="black"/>
<path d="M243.914 159.051C243.914 159.051 251.308 152.926 253.682 155.447L256.985 161.211C256.985 161.211 259.098 162.114 258.705 167.897L260.289 178.343L255.54 179.962C255.54 179.962 252.769 183.566 255.015 188.789C255.015 188.789 248.014 196.714 242.465 195.091L242.862 186.629C242.862 186.629 244.049 181.942 241.94 177.621C239.83 173.3 241.808 169.155 243.788 167.536C243.781 167.517 244.704 160.67 243.914 159.051Z" fill="#FF748E"/>
<path d="M243.517 195.794C243.517 195.794 240.742 196.516 239.423 199.398C239.041 200.264 238.576 201.056 238.039 201.753C237.919 201.902 237.825 202.088 237.767 202.296C237.709 202.503 237.687 202.727 237.703 202.948C237.719 203.169 237.773 203.382 237.86 203.57C237.947 203.757 238.065 203.915 238.205 204.029C239.253 204.889 240.959 205.417 243.12 202.997C246.834 198.857 243.517 195.794 243.517 195.794Z" fill="#DB8B8B"/>
<path opacity="0.1" d="M247.611 162.475C247.611 162.475 250.25 162.114 250.911 171.478C251.572 180.841 252.627 183.007 252.627 183.007C252.627 183.007 253.288 187.869 251.701 190.751C250.114 193.633 247.082 199.759 247.082 199.759C247.082 199.759 243.782 201.017 243.12 196.52L247.214 186.074C247.214 186.074 247.872 182.47 246.288 179.948C244.704 177.427 243.517 160.67 247.611 162.475Z" fill="black"/>
<path d="M247.346 161.933C247.346 161.933 249.984 161.572 250.646 170.941C251.307 180.309 252.362 182.465 252.362 182.465C252.362 182.465 253.04 187.327 251.44 190.21C249.839 193.092 246.834 199.217 246.834 199.217C246.834 199.217 243.533 200.476 242.872 195.979L246.966 185.532C246.966 185.532 247.627 181.928 246.04 179.407C244.453 176.886 243.252 160.133 247.346 161.933Z" fill="#FF748E"/>
<path opacity="0.1" d="M245.165 168.688C245.165 168.688 244.904 174.272 246.091 177.334C247.278 180.397 247.278 184.357 246.091 186.518" fill="black"/>
<path opacity="0.1" d="M244.507 161.841C244.507 161.841 245.562 160.402 248.601 160.222C251.64 160.041 252.956 158.783 252.956 158.783" fill="black"/>
<path opacity="0.1" d="M251.85 137.547C252.654 137.682 253.57 138.056 253.858 139.083C253.938 139.474 254 139.871 254.045 140.272C254.343 141.845 255.642 142.586 256.443 143.779C257.148 144.843 257.46 146.277 257.691 147.679C258.349 151.694 258.506 155.83 258.156 159.916C257.898 162.9 257.369 165.842 257.223 168.84C257.077 171.838 257.345 174.998 258.546 177.519C259.065 178.602 259.746 179.555 260.113 180.758C259.356 181.595 258.312 181.716 257.335 181.762C256.204 181.814 255.068 181.814 253.926 181.762C253.328 181.794 252.734 181.624 252.196 181.267C251.816 180.936 251.503 180.479 251.287 179.939C250.636 178.435 250.473 176.627 250.501 174.882C250.528 173.138 250.731 171.403 250.755 169.655C250.822 168.701 250.667 167.742 250.311 166.916C249.983 166.396 249.612 165.93 249.205 165.528C247.791 163.816 247.306 161.077 247.258 158.5C247.211 155.923 247.523 153.347 247.363 150.779C247.302 149.775 247.024 148.567 246.302 148.373C246.073 148.36 245.846 148.32 245.623 148.253C245.043 147.948 245.101 146.833 244.945 146.014C244.758 145.088 244.182 144.381 244.019 143.455C243.639 141.276 245.674 138.672 247.007 137.904C248.34 137.136 250.423 137.307 251.85 137.547Z" fill="black"/>
<path d="M251.983 137.186C252.787 137.321 253.702 137.695 253.991 138.727C254.07 139.116 254.133 139.512 254.177 139.911C254.476 141.484 255.775 142.225 256.575 143.418C257.281 144.482 257.593 145.916 257.823 147.318C258.481 151.337 258.637 155.479 258.285 159.569C258.03 162.553 257.501 165.495 257.355 168.498C257.209 171.5 257.477 174.651 258.678 177.172C259.197 178.26 259.879 179.208 260.245 180.411C259.489 181.253 258.444 181.369 257.467 181.415C256.337 181.464 255.2 181.464 254.058 181.415C253.461 181.449 252.867 181.28 252.329 180.924C251.948 180.592 251.635 180.134 251.42 179.592C250.769 178.088 250.606 176.279 250.633 174.535C250.66 172.791 250.863 171.056 250.887 169.312C250.887 168.359 250.847 167.351 250.443 166.573C250.116 166.053 249.745 165.587 249.337 165.185C247.923 163.474 247.438 160.735 247.39 158.158C247.343 155.581 247.655 153.004 247.496 150.436C247.434 149.432 247.156 148.225 246.434 148.031C246.206 148.018 245.979 147.978 245.756 147.91C245.176 147.605 245.233 146.49 245.077 145.671C244.891 144.746 244.314 144.043 244.151 143.113C243.771 140.934 245.806 138.329 247.139 137.561C248.472 136.793 250.565 136.946 251.983 137.186Z" fill="#464353"/>
<path d="M43.4272 264.986C43.4272 264.986 47.0631 264.834 48.1553 263.77C49.2474 262.706 53.7448 261.433 54.0161 263.14C54.2874 264.848 59.4767 271.625 55.3728 271.672C51.2688 271.718 45.8421 270.797 44.7466 269.89C43.6511 268.984 43.4272 264.986 43.4272 264.986Z" fill="#A8A8A8"/>
<path opacity="0.2" d="M55.4474 271.065C51.3469 271.112 45.9167 270.196 44.8246 269.289C43.9937 268.595 43.6613 266.115 43.5493 264.968H43.4272C43.4272 264.968 43.6579 268.965 44.75 269.872C45.8421 270.779 51.2722 271.695 55.3762 271.653C56.5599 271.653 56.9669 271.065 56.9465 270.214C56.7804 270.746 56.3293 271.065 55.4474 271.065Z" fill="black"/>
<path d="M274.364 199.916C274.364 199.916 276.857 199.81 277.61 199.079C278.363 198.348 281.446 197.478 281.632 198.649C281.819 199.819 285.384 204.473 282.565 204.506C279.747 204.538 276.023 203.904 275.273 203.284C274.523 202.664 274.364 199.916 274.364 199.916Z" fill="#A8A8A8"/>
<path opacity="0.2" d="M282.616 204.098C279.801 204.126 276.073 203.497 275.324 202.877C274.751 202.414 274.523 200.698 274.449 199.911H274.364C274.364 199.911 274.523 202.655 275.273 203.28C276.023 203.904 279.75 204.529 282.565 204.501C283.379 204.501 283.661 204.098 283.644 203.511C283.532 203.872 283.223 204.089 282.616 204.098Z" fill="black"/>
<path opacity="0.1" d="M10.6127 20.0138C14.6644 20.0138 17.949 15.5336 17.949 10.0069C17.949 4.48024 14.6644 0 10.6127 0C6.56103 0 3.27649 4.48024 3.27649 10.0069C3.27649 15.5336 6.56103 20.0138 10.6127 20.0138Z" fill="#D40000"/>
<path opacity="0.1" d="M326.04 48.6974C330.092 48.6974 333.376 44.2172 333.376 38.6905C333.376 33.1638 330.092 28.6836 326.04 28.6836C321.988 28.6836 318.704 33.1638 318.704 38.6905C318.704 44.2172 321.988 48.6974 326.04 48.6974Z" fill="#D40000"/>
<path opacity="0.1" d="M5.42671 56.5254C8.4238 56.5254 10.8534 53.2113 10.8534 49.1232C10.8534 45.035 8.4238 41.7209 5.42671 41.7209C2.42962 41.7209 0 45.035 0 49.1232C0 53.2113 2.42962 56.5254 5.42671 56.5254Z" fill="#D40000"/>
<path opacity="0.1" d="M60.3719 14.8879C63.369 14.8879 65.7986 11.5738 65.7986 7.48561C65.7986 3.39747 63.369 0.083374 60.3719 0.083374C57.3748 0.083374 54.9452 3.39747 54.9452 7.48561C54.9452 11.5738 57.3748 14.8879 60.3719 14.8879Z" fill="#D40000"/>
<path opacity="0.1" d="M282.867 15.8133C285.864 15.8133 288.294 12.4992 288.294 8.41103C288.294 4.32288 285.864 1.00879 282.867 1.00879C279.87 1.00879 277.44 4.32288 277.44 8.41103C277.44 12.4992 279.87 15.8133 282.867 15.8133Z" fill="#D40000"/>
<path d="M301.731 299.05C301.731 299.05 303.088 301.475 301.104 305.134C299.12 308.793 297.482 311.879 298.143 314.16C298.143 314.16 301.138 307.369 303.57 307.271C306.002 307.174 304.411 303.14 301.731 299.05Z" fill="#FC6681"/>
<path opacity="0.1" d="M301.732 299.05C301.85 299.285 301.942 299.543 302.007 299.814C304.381 303.626 305.656 307.183 303.363 307.271C301.233 307.355 298.679 312.55 298.065 313.864C298.086 313.965 298.111 314.064 298.14 314.16C298.14 314.16 301.135 307.369 303.567 307.271C305.999 307.174 304.411 303.14 301.732 299.05Z" fill="black"/>
<path d="M304.255 302.141C304.255 302.992 304.184 303.686 304.099 303.686C304.014 303.686 303.943 302.992 303.943 302.141C303.943 301.29 304.031 301.679 304.116 301.679C304.201 301.679 304.255 301.285 304.255 302.141Z" fill="#FFD037"/>
<path d="M305.124 303.158C304.574 303.566 304.106 303.811 304.052 303.709C303.998 303.607 304.425 303.191 304.971 302.784C305.517 302.377 305.31 302.673 305.348 302.784C305.385 302.895 305.673 302.751 305.124 303.158Z" fill="#FFD037"/>
<path d="M294.555 299.05C294.555 299.05 293.198 301.475 295.182 305.134C297.166 308.793 298.805 311.879 298.143 314.16C298.143 314.16 295.145 307.369 292.716 307.271C290.288 307.174 291.872 303.14 294.555 299.05Z" fill="#FC6681"/>
<path opacity="0.1" d="M294.555 299.05C294.436 299.286 294.343 299.543 294.276 299.814C291.902 303.626 290.63 307.183 292.92 307.271C295.05 307.355 297.607 312.55 298.218 313.864C298.197 313.961 298.173 314.063 298.146 314.16C298.146 314.16 295.148 307.369 292.72 307.271C290.291 307.174 291.872 303.14 294.555 299.05Z" fill="black"/>
<path d="M292.029 302.141C292.029 302.992 292.1 303.686 292.188 303.686C292.276 303.686 292.344 302.992 292.344 302.141C292.344 301.29 292.256 301.679 292.168 301.679C292.079 301.679 292.029 301.285 292.029 302.141Z" fill="#FFD037"/>
<path d="M291.164 303.158C291.713 303.566 292.181 303.811 292.232 303.709C292.283 303.607 291.862 303.191 291.313 302.784C290.763 302.377 290.974 302.673 290.94 302.784C290.906 302.895 290.614 302.751 291.164 303.158Z" fill="#FFD037"/>
<path d="M292.462 313.846C292.462 313.846 296.261 313.684 297.404 312.574C298.547 311.463 303.248 310.135 303.533 311.917C303.818 313.698 309.237 320.785 304.95 320.832C300.663 320.878 294.986 319.906 293.846 318.981C292.706 318.056 292.462 313.846 292.462 313.846Z" fill="#A8A8A8"/>
<path opacity="0.2" d="M305.028 320.211C300.738 320.258 295.064 319.286 293.921 318.361C293.052 317.639 292.703 315.044 292.588 313.845H292.462C292.462 313.845 292.703 318.009 293.846 318.972C294.989 319.934 300.663 320.878 304.95 320.822C306.188 320.822 306.616 320.207 306.592 319.318C306.422 319.864 305.948 320.202 305.028 320.211Z" fill="black"/>
<path opacity="0.7" d="M107.33 58.2789C105.921 58.2789 104.544 58.8487 103.373 59.9163C102.202 60.9838 101.289 62.5012 100.75 64.2764C100.211 66.0517 100.07 68.0051 100.345 69.8898C100.619 71.7744 101.298 73.5055 102.294 74.8642C103.29 76.223 104.559 77.1483 105.941 77.5231C107.322 77.898 108.754 77.7056 110.056 76.9703C111.357 76.2349 112.47 74.9897 113.252 73.392C114.035 71.7943 114.453 69.9159 114.453 67.9944C114.453 65.4177 113.702 62.9465 112.367 61.1245C111.031 59.3025 109.219 58.2789 107.33 58.2789ZM107.33 60.1619C108.471 60.1619 109.585 60.6231 110.534 61.4873C111.482 62.3515 112.221 63.5799 112.657 65.017C113.094 66.4541 113.208 68.0355 112.985 69.5611C112.763 71.0868 112.214 72.4881 111.407 73.5881C110.601 74.688 109.574 75.437 108.455 75.7405C107.337 76.044 106.177 75.8882 105.124 75.293C104.07 74.6977 103.17 73.6896 102.536 72.3962C101.902 71.1029 101.564 69.5823 101.564 68.0268C101.564 65.9409 102.172 63.9404 103.253 62.4654C104.334 60.9905 105.801 60.1619 107.33 60.1619ZM111.363 65.274L110.715 64.3812C110.683 64.3364 110.646 64.3008 110.604 64.2764C110.562 64.2521 110.517 64.2396 110.471 64.2396C110.425 64.2396 110.38 64.2521 110.338 64.2764C110.296 64.3008 110.258 64.3364 110.227 64.3812L106.157 69.8819L104.44 67.504C104.409 67.4592 104.371 67.4236 104.329 67.3993C104.287 67.3749 104.242 67.3624 104.196 67.3624C104.151 67.3624 104.106 67.3749 104.064 67.3993C104.022 67.4236 103.984 67.4592 103.952 67.504L103.301 68.3876C103.268 68.4308 103.242 68.4825 103.224 68.5397C103.206 68.597 103.197 68.6585 103.197 68.7207C103.197 68.7829 103.206 68.8445 103.224 68.9017C103.242 68.9589 103.268 69.0107 103.301 69.0538L105.912 72.6439C105.944 72.6887 105.982 72.7243 106.024 72.7486C106.066 72.7729 106.111 72.7855 106.157 72.7855C106.202 72.7855 106.247 72.7729 106.289 72.7486C106.331 72.7243 106.369 72.6887 106.401 72.6439L111.363 65.9264C111.396 65.8832 111.422 65.8315 111.44 65.7742C111.458 65.717 111.467 65.6555 111.467 65.5933C111.467 65.5311 111.458 65.4695 111.44 65.4123C111.422 65.3551 111.396 65.3033 111.363 65.2602V65.274Z" fill="#3ACC6C"/>
<path opacity="0.7" d="M28.4802 107.466C27.1088 107.901 25.8626 108.88 24.899 110.28C23.9354 111.68 23.2976 113.439 23.0661 115.333C22.8347 117.227 23.02 119.172 23.5987 120.923C24.1773 122.674 25.1234 124.151 26.3173 125.169C27.5112 126.187 28.8995 126.699 30.3067 126.641C31.7139 126.583 33.077 125.957 34.2238 124.843C35.3705 123.729 36.2495 122.177 36.7497 120.382C37.2499 118.586 37.3488 116.629 37.034 114.758C36.8245 113.512 36.4369 112.335 35.8933 111.294C35.3497 110.253 34.6609 109.368 33.8663 108.691C33.0717 108.014 32.1869 107.557 31.2627 107.347C30.3384 107.137 29.3929 107.177 28.4802 107.466ZM28.7922 109.317C29.9039 108.963 31.0676 109.067 32.1358 109.616C33.204 110.166 34.1287 111.135 34.7927 112.401C35.4567 113.668 35.8301 115.175 35.8656 116.731C35.9012 118.288 35.5972 119.823 34.9923 121.144C34.3873 122.464 33.5087 123.51 32.4676 124.149C31.4265 124.788 30.2698 124.99 29.1441 124.732C28.0185 124.473 26.9745 123.764 26.1444 122.695C25.3143 121.626 24.7355 120.245 24.4814 118.727C24.142 116.7 24.405 114.572 25.2128 112.808C26.0207 111.045 27.3076 109.79 28.7922 109.317ZM33.5643 113.064L32.7842 112.38C32.7461 112.346 32.7035 112.323 32.6587 112.312C32.614 112.301 32.5681 112.303 32.5239 112.317C32.4796 112.33 32.4378 112.356 32.4009 112.392C32.3641 112.429 32.333 112.475 32.3094 112.528L29.2569 119.134L27.1913 117.353C27.1533 117.319 27.1106 117.296 27.0658 117.285C27.0211 117.275 26.9752 117.276 26.9309 117.29C26.8867 117.304 26.8449 117.33 26.808 117.366C26.7712 117.402 26.7401 117.448 26.7165 117.501L26.2247 118.565C26.2 118.617 26.1831 118.675 26.1752 118.736C26.1672 118.797 26.1683 118.86 26.1785 118.92C26.1886 118.981 26.2075 119.038 26.2341 119.088C26.2607 119.138 26.2944 119.181 26.3332 119.213L29.4672 121.91C29.5054 121.945 29.5483 121.968 29.5934 121.979C29.6385 121.991 29.6848 121.989 29.7295 121.975C29.7742 121.962 29.8164 121.936 29.8535 121.899C29.8906 121.862 29.9218 121.816 29.9454 121.762L33.6763 113.698C33.7012 113.647 33.7182 113.589 33.7264 113.528C33.7346 113.467 33.7338 113.404 33.724 113.344C33.7142 113.284 33.6956 113.227 33.6693 113.176C33.6431 113.126 33.6097 113.083 33.5711 113.051L33.5643 113.064Z" fill="#3ACC6C"/>
<path opacity="0.7" d="M211.14 59.6851C209.731 59.6851 208.354 60.2549 207.182 61.3224C206.011 62.39 205.098 63.9073 204.559 65.6826C204.02 67.4578 203.879 69.4113 204.154 71.2959C204.429 73.1805 205.107 74.9116 206.103 76.2704C207.099 77.6291 208.368 78.5544 209.75 78.9293C211.132 79.3041 212.564 79.1117 213.865 78.3764C215.167 77.641 216.279 76.3958 217.062 74.7981C217.844 73.2004 218.262 71.322 218.262 69.4005C218.262 66.8238 217.512 64.3526 216.176 62.5306C214.84 60.7086 213.029 59.6851 211.14 59.6851ZM211.14 61.568C212.28 61.568 213.395 62.0293 214.343 62.8935C215.291 63.7577 216.03 64.986 216.466 66.4231C216.903 67.8602 217.017 69.4416 216.795 70.9672C216.572 72.4929 216.023 73.8943 215.217 74.9942C214.41 76.0941 213.383 76.8432 212.264 77.1466C211.146 77.4501 209.987 77.2944 208.933 76.6991C207.879 76.1038 206.979 75.0957 206.345 73.8024C205.712 72.509 205.374 70.9884 205.374 69.4329C205.374 67.347 205.981 65.3465 207.062 63.8716C208.144 62.3966 209.61 61.568 211.14 61.568ZM215.172 66.6802L214.524 65.7873C214.493 65.7425 214.455 65.7069 214.413 65.6826C214.371 65.6582 214.326 65.6457 214.28 65.6457C214.235 65.6457 214.19 65.6582 214.148 65.6826C214.106 65.7069 214.068 65.7425 214.036 65.7873L209.966 71.2881L208.246 68.924C208.215 68.8792 208.177 68.8436 208.135 68.8193C208.093 68.7949 208.048 68.7824 208.002 68.7824C207.957 68.7824 207.911 68.7949 207.87 68.8193C207.828 68.8436 207.79 68.8792 207.758 68.924L207.11 69.8169C207.077 69.86 207.051 69.9118 207.033 69.969C207.016 70.0262 207.006 70.0878 207.006 70.15C207.006 70.2122 207.016 70.2737 207.033 70.3309C207.051 70.3882 207.077 70.4399 207.11 70.4831L209.722 74.0732C209.753 74.1179 209.791 74.1535 209.833 74.1779C209.875 74.2022 209.92 74.2147 209.966 74.2147C210.012 74.2147 210.057 74.2022 210.099 74.1779C210.141 74.1535 210.179 74.1179 210.21 74.0732L215.172 67.3556C215.205 67.3125 215.231 67.2607 215.249 67.2035C215.267 67.1463 215.276 67.0847 215.276 67.0225C215.276 66.9603 215.267 66.8988 215.249 66.8416C215.231 66.7843 215.205 66.7326 215.172 66.6894V66.6802Z" fill="#3ACC6C"/>
<path opacity="0.7" d="M292.856 107.665C291.452 107.517 290.047 107.939 288.819 108.879C287.591 109.82 286.594 111.235 285.956 112.947C285.318 114.66 285.066 116.592 285.232 118.499C285.398 120.407 285.976 122.204 286.891 123.664C287.806 125.125 289.018 126.182 290.373 126.703C291.729 127.224 293.167 127.185 294.506 126.591C295.846 125.998 297.026 124.876 297.898 123.367C298.77 121.859 299.294 120.031 299.405 118.116C299.479 116.843 299.368 115.563 299.079 114.349C298.789 113.134 298.327 112.01 297.719 111.039C297.111 110.068 296.368 109.271 295.534 108.692C294.699 108.113 293.789 107.764 292.856 107.665ZM292.747 109.539C293.886 109.656 294.973 110.231 295.871 111.191C296.77 112.151 297.439 113.454 297.795 114.934C298.15 116.413 298.175 118.004 297.867 119.503C297.56 121.002 296.932 122.343 296.065 123.356C295.198 124.369 294.13 125.008 292.997 125.192C291.863 125.376 290.715 125.097 289.698 124.39C288.681 123.683 287.84 122.58 287.283 121.221C286.726 119.862 286.477 118.308 286.568 116.756C286.625 115.729 286.831 114.727 287.173 113.808C287.515 112.889 287.987 112.071 288.561 111.4C289.135 110.73 289.8 110.221 290.518 109.901C291.237 109.582 291.994 109.459 292.747 109.539ZM296.478 115.063L295.881 114.105C295.852 114.057 295.817 114.018 295.777 113.989C295.737 113.96 295.693 113.943 295.647 113.938C295.602 113.932 295.557 113.94 295.513 113.959C295.47 113.978 295.43 114.009 295.396 114.05L291.031 119.106L289.451 116.567C289.422 116.518 289.386 116.478 289.346 116.449C289.305 116.419 289.261 116.402 289.215 116.397C289.169 116.391 289.123 116.399 289.08 116.418C289.037 116.438 288.996 116.47 288.962 116.511L288.26 117.325C288.225 117.365 288.197 117.414 288.176 117.469C288.155 117.524 288.142 117.584 288.139 117.645C288.135 117.707 288.141 117.769 288.155 117.828C288.17 117.886 288.193 117.94 288.223 117.987L290.621 121.841C290.649 121.889 290.685 121.928 290.725 121.957C290.765 121.986 290.809 122.003 290.855 122.008C290.9 122.013 290.945 122.006 290.988 121.987C291.032 121.968 291.071 121.937 291.106 121.896L296.437 115.725C296.473 115.685 296.502 115.637 296.523 115.582C296.544 115.527 296.557 115.467 296.56 115.406C296.564 115.344 296.559 115.282 296.545 115.223C296.531 115.164 296.508 115.11 296.478 115.063Z" fill="#3ACC6C"/>
</g>
<defs>
<linearGradient id="paint0_linear_3_115" x1="249.344" y1="266.129" x2="249.344" y2="135.368" gradientUnits="userSpaceOnUse">
<stop stop-color="#808080" stop-opacity="0.25"/>
<stop offset="0.54" stop-color="#808080" stop-opacity="0.12"/>
<stop offset="1" stop-color="#808080" stop-opacity="0.1"/>
</linearGradient>
<clipPath id="clip0_3_115">
<rect width="358" height="358" fill="white"/>
</clipPath>
</defs>
</svg>
